<svg id="svg" version="1.1" xmlns="http://www.w3.org/2000/svg" xmlns:xlink="http://www.w3.org/1999/xlink" width="400" height="400" viewBox="0, 0, 400,400"><g id="svgg"><path id="path0" d="M192.235 23.291 C 191.767 24.005,191.653 25.153,191.745 28.211 C 191.887 32.908,191.623 33.884,190.114 34.242 C 188.772 34.560,185.918 35.734,184.000 36.755 C 183.230 37.166,181.790 37.626,180.800 37.778 C 178.641 38.110,175.186 39.159,174.523 39.683 C 174.260 39.891,173.180 40.309,172.123 40.612 C 167.644 41.896,164.714 42.865,160.000 44.621 C 157.250 45.645,154.190 46.719,153.200 47.009 C 152.210 47.298,149.871 48.089,148.003 48.767 C 146.135 49.445,144.362 50.000,144.064 50.000 C 143.765 50.000,142.954 50.262,142.260 50.582 C 140.630 51.335,139.344 51.790,127.600 55.772 C 122.210 57.600,115.910 59.763,113.600 60.580 C 111.290 61.396,108.590 62.301,107.600 62.591 C 106.610 62.880,104.540 63.592,103.000 64.173 C 100.368 65.165,88.734 69.165,75.600 73.592 C 72.410 74.668,67.730 76.291,65.200 77.199 C 62.670 78.108,56.820 80.119,52.200 81.669 C 47.580 83.219,43.459 84.667,43.043 84.888 C 42.627 85.108,41.187 85.619,39.843 86.022 C 38.499 86.425,34.520 87.747,31.000 88.960 C 27.480 90.173,20.370 92.612,15.200 94.380 C 8.888 96.539,5.570 97.874,5.100 98.442 C 4.286 99.426,3.980 376.443,4.790 378.574 L 5.180 379.600 202.590 379.600 L 400.000 379.600 399.994 374.500 L 399.988 369.400 397.494 368.456 C 388.047 364.881,379.683 361.607,376.000 360.043 L 372.600 358.600 198.438 358.498 C 70.911 358.423,24.132 358.276,23.738 357.949 C 23.290 357.576,23.200 338.977,23.200 246.226 L 23.200 134.951 24.016 134.075 C 24.523 133.530,25.316 133.197,26.116 133.193 C 26.822 133.189,28.750 132.832,30.400 132.400 C 32.050 131.967,34.635 131.339,36.144 131.003 C 37.654 130.667,39.033 130.303,39.210 130.194 C 39.536 129.992,43.039 129.226,48.307 128.203 C 49.905 127.893,51.419 127.512,51.670 127.357 C 52.147 127.062,54.524 126.499,60.600 125.242 C 64.586 124.418,68.704 123.434,71.897 122.545 C 74.083 121.936,78.131 121.081,82.161 120.376 C 83.459 120.149,84.848 119.789,85.246 119.575 C 85.644 119.362,87.192 118.935,88.685 118.626 C 90.178 118.316,93.020 117.682,95.000 117.215 C 96.980 116.748,99.500 116.196,100.600 115.989 C 101.700 115.782,103.950 115.260,105.600 114.830 C 107.250 114.399,110.400 113.654,112.600 113.173 C 114.800 112.692,117.420 112.059,118.423 111.766 C 119.426 111.473,121.046 111.121,122.023 110.983 C 123.000 110.845,124.490 110.473,125.333 110.156 C 126.177 109.839,127.887 109.418,129.133 109.221 C 130.380 109.023,132.840 108.500,134.600 108.058 C 136.360 107.616,138.700 107.047,139.800 106.794 C 140.900 106.541,143.600 105.907,145.800 105.385 C 148.000 104.864,153.040 103.699,157.000 102.797 C 160.960 101.895,165.116 100.897,166.235 100.579 C 167.354 100.260,168.614 100.001,169.035 100.002 C 169.456 100.003,170.610 99.750,171.600 99.439 C 172.590 99.128,175.110 98.498,177.200 98.038 C 179.290 97.579,182.949 96.752,185.332 96.201 C 192.006 94.659,191.664 94.457,191.800 100.000 C 191.962 106.578,192.644 106.342,196.996 98.200 C 197.819 96.660,198.787 94.949,199.146 94.398 C 199.858 93.308,199.919 93.206,202.512 88.800 C 208.103 79.301,214.563 68.429,216.484 65.284 C 221.066 57.782,221.143 57.402,218.700 54.345 C 217.765 53.175,216.730 51.825,216.400 51.345 C 216.070 50.864,212.830 46.566,209.200 41.793 C 205.570 37.020,202.330 32.720,202.000 32.238 C 201.429 31.404,196.471 25.093,195.200 23.583 C 194.171 22.360,192.925 22.238,192.235 23.291 M38.600 128.800 C 38.749 129.042,38.244 129.189,37.324 129.172 C 36.107 129.149,35.961 129.075,36.600 128.800 C 37.699 128.328,38.308 128.328,38.600 128.800 M29.905 360.275 C 29.522 360.375,28.802 360.379,28.305 360.283 C 27.807 360.187,28.120 360.105,29.000 360.101 C 29.880 360.096,30.287 360.175,29.905 360.275 M371.100 360.287 C 370.495 360.378,369.505 360.378,368.900 360.287 C 368.295 360.195,368.790 360.120,370.000 360.120 C 371.210 360.120,371.705 360.195,371.100 360.287 " stroke="none" fill="#fc8b16" fill-rule="evenodd"></path><path id="path1" d="M216.918 150.387 C 212.431 150.678,212.775 149.306,212.895 166.425 L 213.000 181.400 215.132 181.522 C 218.243 181.700,218.400 181.456,218.400 176.427 C 218.400 170.919,218.375 170.948,223.252 170.681 C 230.355 170.292,234.000 166.804,234.000 160.397 C 234.000 152.709,228.730 149.621,216.918 150.387 M127.114 165.500 C 126.986 182.436,126.852 181.682,129.964 181.518 L 132.200 181.400 132.200 171.754 L 132.200 162.108 133.057 162.498 C 133.528 162.713,134.203 163.544,134.556 164.345 C 134.910 165.145,135.874 166.725,136.699 167.855 C 137.525 168.986,138.917 170.966,139.793 172.255 C 140.670 173.545,141.527 174.780,141.698 175.000 C 142.792 176.404,144.288 178.445,144.800 179.229 C 146.476 181.799,148.511 182.649,150.100 181.443 C 151.115 180.673,151.182 152.039,150.171 151.029 C 149.314 150.171,146.172 150.174,145.843 151.033 C 145.709 151.381,145.600 155.791,145.600 160.833 C 145.600 170.591,145.275 171.977,143.757 168.700 C 143.159 167.409,141.043 164.132,139.817 162.600 C 139.074 161.672,135.881 157.181,133.705 154.003 C 131.458 150.722,131.038 150.400,129.014 150.400 L 127.228 150.400 127.114 165.500 M276.982 150.901 C 276.877 151.177,276.837 158.152,276.895 166.401 L 277.000 181.400 278.835 181.519 C 281.575 181.697,281.687 181.415,281.622 174.502 C 281.551 167.045,282.445 164.635,285.559 163.877 C 289.480 162.924,290.498 164.936,290.780 174.200 L 291.000 181.400 292.730 181.524 C 295.589 181.730,295.602 181.692,295.583 173.051 C 295.562 163.919,295.341 162.502,293.689 160.887 C 291.683 158.926,286.182 158.652,284.570 160.433 C 282.486 162.736,281.600 161.307,281.600 155.647 C 281.600 152.846,281.434 151.194,281.120 150.880 C 280.478 150.238,277.230 150.255,276.982 150.901 M263.765 154.777 C 261.868 155.231,261.600 155.527,261.600 157.175 C 261.600 158.843,261.184 159.350,259.479 159.758 C 257.703 160.182,258.000 163.598,259.853 164.076 C 261.485 164.496,261.588 164.968,261.595 172.051 C 261.603 181.644,264.602 184.566,271.368 181.573 C 273.993 180.412,273.062 177.315,270.233 177.801 C 267.510 178.269,267.017 177.229,266.872 170.696 C 266.725 164.129,266.729 164.120,269.810 163.926 L 271.800 163.800 271.800 161.800 L 271.800 159.800 269.810 159.674 C 267.170 159.508,266.800 159.124,266.800 156.551 C 266.800 154.187,266.636 154.091,263.765 154.777 M225.006 155.552 C 229.160 157.779,229.387 162.824,225.450 165.404 C 224.460 166.052,219.710 166.362,218.856 165.834 C 218.270 165.473,218.235 156.656,218.814 155.574 C 219.384 154.510,223.037 154.497,225.006 155.552 M162.800 159.580 C 155.610 161.058,153.092 173.458,158.682 179.858 C 162.319 184.022,175.129 182.594,173.148 178.246 C 172.606 177.057,171.797 176.936,170.146 177.798 C 166.292 179.808,159.901 176.417,161.184 173.043 L 161.580 172.000 167.090 171.960 C 174.829 171.904,174.573 172.024,174.720 168.383 C 175.003 161.378,170.441 158.009,162.800 159.580 M177.391 160.014 C 177.128 160.440,178.051 163.583,181.649 174.509 C 182.502 177.098,183.200 179.553,183.200 179.963 C 183.200 181.534,186.236 182.555,187.669 181.466 C 188.289 180.995,189.480 178.124,190.435 174.800 C 190.657 174.030,191.002 173.040,191.202 172.600 C 191.403 172.160,191.754 171.080,191.983 170.200 C 192.721 167.367,193.019 167.269,194.144 169.489 C 194.705 170.596,195.374 172.337,195.631 173.358 C 195.888 174.378,196.256 175.311,196.449 175.430 C 196.642 175.550,196.800 175.952,196.800 176.324 C 196.801 178.244,199.150 182.000,200.350 182.000 C 202.348 182.000,202.698 181.642,203.610 178.671 C 204.095 177.092,204.750 174.990,205.065 174.000 C 205.381 173.010,205.869 171.289,206.150 170.175 C 206.430 169.061,206.783 167.951,206.934 167.707 C 207.489 166.809,209.205 160.332,208.983 159.972 C 208.856 159.767,207.944 159.600,206.956 159.600 C 204.916 159.600,204.406 160.337,203.571 164.494 C 203.338 165.652,202.890 167.410,202.574 168.400 C 202.259 169.390,201.814 170.965,201.585 171.900 C 200.911 174.657,200.483 174.084,198.524 167.800 C 198.182 166.700,197.761 165.620,197.590 165.400 C 197.418 165.180,197.066 164.206,196.807 163.236 C 195.583 158.660,191.874 158.016,190.834 162.200 C 190.067 165.288,187.265 172.978,186.857 173.114 C 186.630 173.190,186.256 172.475,186.025 171.526 C 185.794 170.577,185.405 169.260,185.162 168.600 C 184.918 167.940,184.477 166.500,184.183 165.400 C 183.889 164.300,183.393 162.590,183.081 161.600 L 182.515 159.800 180.092 159.682 C 178.605 159.609,177.562 159.738,177.391 160.014 M241.000 159.886 C 239.114 160.343,238.391 161.553,239.107 163.056 C 239.562 164.010,239.947 164.351,240.380 164.183 C 244.877 162.432,250.139 163.954,249.921 166.943 L 249.800 168.595 246.000 169.030 C 238.249 169.917,235.310 173.257,237.593 178.583 C 239.162 182.244,245.858 183.262,248.381 180.223 C 249.137 179.311,250.284 179.461,251.275 180.600 C 252.190 181.652,254.126 181.967,254.633 181.146 C 255.065 180.448,254.801 163.637,254.344 162.661 C 253.098 159.999,246.342 158.594,241.000 159.886 M167.552 163.643 C 169.783 164.421,170.945 168.148,169.100 168.610 C 166.902 169.162,161.415 168.632,161.266 167.854 C 160.730 165.051,164.448 162.561,167.552 163.643 M248.974 171.990 C 251.752 173.046,248.889 178.000,245.500 178.000 C 244.295 178.000,242.518 176.529,242.292 175.345 C 241.838 172.972,246.026 170.869,248.974 171.990 M115.580 213.358 C 115.034 213.645,114.415 214.783,113.818 216.600 C 111.689 223.077,111.200 224.686,111.198 225.228 C 111.196 225.543,110.934 226.300,110.615 226.911 C 110.297 227.522,109.823 229.142,109.562 230.511 C 108.892 234.031,108.594 234.429,108.034 232.560 C 107.074 229.357,106.418 226.921,105.782 224.200 C 102.973 212.178,103.495 213.200,100.166 213.200 L 97.512 213.200 97.733 214.500 C 98.124 216.809,99.102 220.718,99.415 221.224 C 99.582 221.495,99.950 222.815,100.232 224.158 C 100.515 225.501,101.208 228.220,101.774 230.200 C 103.843 237.443,104.488 239.837,104.843 241.600 C 105.739 246.048,109.723 245.503,110.756 240.792 C 110.974 239.797,111.432 238.447,111.774 237.792 C 112.115 237.136,112.396 236.243,112.398 235.808 C 112.399 235.372,112.739 234.112,113.152 233.008 C 114.269 230.027,114.807 228.419,115.413 226.241 C 116.249 223.241,116.639 223.205,117.337 226.061 C 118.051 228.984,119.019 232.045,119.804 233.860 C 120.104 234.553,120.474 235.813,120.626 236.660 C 120.779 237.507,121.056 238.392,121.241 238.627 C 121.426 238.862,121.777 239.985,122.021 241.123 C 122.997 245.673,126.991 245.726,127.789 241.200 C 127.925 240.430,128.363 238.630,128.764 237.200 C 129.164 235.770,129.704 233.790,129.964 232.800 C 130.223 231.810,130.795 229.740,131.235 228.200 C 133.507 220.244,135.072 213.736,134.781 213.452 C 134.511 213.189,133.593 213.100,131.715 213.153 C 129.815 213.206,129.342 214.165,128.348 219.980 C 128.101 221.421,127.750 222.889,127.567 223.241 C 127.385 223.594,126.957 225.739,126.618 228.009 C 126.054 231.778,125.325 233.600,124.379 233.600 C 124.216 233.600,123.879 232.385,123.631 230.900 C 123.383 229.415,122.841 227.210,122.426 226.000 C 122.012 224.790,121.276 222.450,120.791 220.800 C 118.597 213.332,117.799 212.192,115.580 213.358 M139.086 213.962 C 138.126 215.587,138.220 216.178,139.631 217.364 C 142.692 219.940,147.163 216.383,144.274 213.670 C 142.800 212.284,139.983 212.443,139.086 213.962 M151.951 213.230 C 151.346 213.604,151.106 240.381,151.689 242.400 C 152.313 244.561,157.715 245.715,159.933 244.162 C 161.423 243.118,161.030 240.642,159.349 240.478 C 156.481 240.199,156.447 240.037,156.317 226.125 C 156.253 219.272,156.110 213.586,156.000 213.488 C 155.570 213.106,152.472 212.909,151.951 213.230 M178.369 213.438 C 178.104 213.756,177.884 215.543,177.853 217.612 C 177.789 221.968,177.770 221.986,173.326 221.994 C 166.583 222.006,163.193 225.988,163.203 233.882 C 163.214 242.473,169.913 247.615,175.862 243.600 C 178.025 242.140,178.639 242.109,179.835 243.400 C 180.913 244.563,182.196 244.703,182.589 243.700 C 182.950 242.779,182.848 213.879,182.482 213.552 C 181.830 212.971,178.825 212.887,178.369 213.438 M197.161 213.900 C 196.931 214.505,196.386 216.080,195.950 217.400 C 195.515 218.720,194.898 220.367,194.579 221.060 C 194.261 221.754,194.000 222.528,194.000 222.780 C 194.000 223.033,193.701 223.816,193.337 224.520 C 192.972 225.224,192.530 226.340,192.356 227.000 C 191.951 228.534,190.485 232.757,189.997 233.800 C 189.485 234.891,188.423 237.860,187.850 239.800 C 187.590 240.680,187.141 241.824,186.852 242.343 C 186.101 243.689,186.707 244.063,189.406 243.922 L 191.728 243.800 192.925 240.738 C 194.299 237.222,194.341 237.200,199.624 237.200 C 204.082 237.200,204.398 237.394,205.751 240.964 L 206.901 244.000 209.463 244.000 C 212.529 244.000,212.799 243.633,211.628 241.061 C 211.173 240.062,210.800 239.036,210.800 238.782 C 210.800 238.529,210.538 237.754,210.217 237.060 C 209.897 236.367,209.074 234.093,208.388 232.006 C 207.702 229.919,206.995 228.029,206.817 227.806 C 206.638 227.583,206.361 226.770,206.200 226.000 C 206.039 225.230,205.669 224.150,205.376 223.600 C 205.084 223.050,204.303 220.942,203.641 218.916 C 201.755 213.145,201.515 212.800,199.380 212.800 C 197.785 212.800,197.533 212.925,197.161 213.900 M257.200 213.600 C 254.774 216.026,258.004 219.453,261.173 217.814 C 262.957 216.892,263.108 214.220,261.440 213.106 C 260.529 212.498,258.008 212.792,257.200 213.600 M315.680 217.195 C 313.976 217.598,313.894 217.698,313.626 219.705 C 313.429 221.175,313.206 221.486,311.900 222.100 C 309.827 223.076,309.660 225.597,311.615 226.406 C 313.424 227.155,313.600 227.829,313.600 233.997 C 313.600 241.086,314.009 242.891,315.867 243.987 C 318.660 245.634,324.800 244.700,324.800 242.627 C 324.800 240.795,324.413 240.400,322.616 240.400 C 319.289 240.400,318.800 239.430,318.800 232.833 C 318.800 226.568,318.877 226.400,321.741 226.400 C 323.984 226.400,324.400 226.084,324.400 224.381 C 324.400 222.533,324.044 222.268,321.200 222.004 L 319.000 221.800 318.893 220.200 C 318.657 216.653,318.517 216.523,315.680 217.195 M200.180 223.436 C 200.329 224.230,200.688 225.447,200.977 226.140 C 203.367 231.867,203.218 232.845,199.931 233.003 C 195.889 233.198,195.510 232.557,197.087 228.200 C 197.405 227.320,197.902 225.670,198.189 224.532 C 199.048 221.142,199.684 220.792,200.180 223.436 M225.554 221.974 C 224.759 222.129,223.610 222.649,223.000 223.128 C 221.573 224.251,221.141 224.226,220.037 222.957 C 219.175 221.966,217.271 221.797,216.429 222.637 C 215.931 223.134,215.947 252.054,216.445 252.654 C 216.787 253.066,217.580 253.202,219.164 253.118 L 221.400 253.000 221.516 249.204 C 221.657 244.614,221.678 244.590,225.357 244.744 C 232.310 245.034,235.808 240.829,235.791 232.200 C 235.778 225.071,232.117 220.574,227.200 221.648 C 227.090 221.672,226.349 221.819,225.554 221.974 M274.934 221.989 C 273.798 222.162,272.572 222.551,272.209 222.852 C 265.766 228.205,266.134 240.734,272.829 243.968 C 275.820 245.413,284.000 244.509,284.000 242.734 C 284.000 240.745,281.786 238.728,281.000 240.000 C 280.173 241.338,276.049 239.987,274.344 237.820 C 272.545 235.533,272.836 229.829,274.861 227.662 C 276.092 226.345,276.127 226.336,279.326 226.457 C 282.534 226.578,282.552 226.573,283.011 225.449 C 283.589 224.036,283.320 222.484,282.456 222.242 C 280.992 221.831,276.874 221.692,274.934 221.989 M294.924 221.996 C 293.426 222.220,292.363 222.705,291.104 223.737 C 285.390 228.419,286.614 242.441,292.856 243.812 C 293.480 243.949,294.094 244.228,294.219 244.431 C 294.659 245.143,299.831 244.844,301.819 243.992 C 306.069 242.170,307.720 239.213,307.733 233.400 C 307.753 224.694,303.310 220.738,294.924 221.996 M139.693 222.334 C 139.301 222.583,139.210 225.036,139.293 233.228 L 139.400 243.800 141.176 243.927 C 144.734 244.181,144.615 244.568,144.492 233.086 C 144.396 224.210,144.303 222.940,143.715 222.500 C 142.969 221.941,140.474 221.838,139.693 222.334 M241.293 222.313 C 240.901 222.578,240.811 225.045,240.893 233.228 L 241.000 243.800 242.931 243.923 C 245.968 244.117,246.000 244.040,246.000 236.577 C 246.000 228.065,246.833 226.400,251.093 226.400 C 252.666 226.400,253.872 223.811,252.974 222.359 C 252.405 221.437,248.846 221.984,247.451 223.209 C 246.063 224.427,245.234 224.302,244.733 222.798 C 244.549 222.246,241.938 221.878,241.293 222.313 M257.700 222.412 L 256.800 222.774 256.800 233.179 L 256.800 243.585 257.732 243.819 C 258.245 243.947,259.460 243.996,260.432 243.926 L 262.200 243.800 262.307 233.400 C 262.431 221.369,262.123 220.635,257.700 222.412 M175.673 226.413 C 180.167 227.662,178.122 240.800,173.433 240.800 C 167.907 240.800,166.770 227.996,172.157 226.433 C 173.838 225.945,173.983 225.944,175.673 226.413 M228.833 227.030 C 230.405 228.453,230.930 235.515,229.642 237.921 C 228.386 240.269,224.986 241.330,222.900 240.025 L 221.600 239.212 221.600 234.060 C 221.600 228.523,222.010 227.290,224.155 226.372 C 225.367 225.853,227.931 226.214,228.833 227.030 M300.600 227.200 C 303.021 229.475,302.977 236.809,300.528 239.256 C 295.590 244.187,289.568 233.903,293.937 228.000 C 295.540 225.834,298.738 225.450,300.600 227.200 M164.601 275.478 C 162.790 275.772,162.813 275.567,162.806 291.482 L 162.800 306.364 164.228 306.632 C 165.014 306.779,166.229 306.736,166.928 306.536 L 168.200 306.171 168.314 301.610 C 168.445 296.353,168.625 296.000,171.176 296.000 C 174.066 296.000,177.683 295.238,178.884 294.377 C 179.480 293.950,180.121 293.600,180.309 293.600 C 181.712 293.600,184.000 288.510,184.000 285.389 C 184.000 277.549,176.245 273.587,164.601 275.478 M175.090 280.604 C 180.724 283.420,178.628 290.633,172.039 291.104 C 168.416 291.364,168.346 291.250,168.487 285.354 C 168.630 279.384,170.278 278.199,175.090 280.604 M196.556 284.792 C 196.091 284.980,195.602 285.418,195.468 285.767 C 195.107 286.709,192.930 286.591,192.400 285.600 C 191.853 284.578,189.019 284.452,188.643 285.433 C 188.509 285.781,188.400 290.433,188.400 295.771 C 188.400 307.041,188.435 307.156,191.665 306.519 L 193.400 306.176 193.600 298.900 L 193.800 291.623 195.200 290.428 C 196.153 289.614,197.047 289.225,198.000 289.210 C 199.942 289.179,200.443 288.753,200.794 286.835 C 201.205 284.585,199.319 283.675,196.556 284.792 M209.200 284.970 C 208.650 285.297,207.840 285.743,207.400 285.959 C 201.191 289.016,202.177 303.438,208.799 306.430 C 212.831 308.252,221.216 307.049,221.191 304.651 C 221.172 302.795,219.797 301.711,218.461 302.500 C 214.686 304.731,208.800 302.419,208.800 298.706 C 208.800 296.963,209.391 296.800,215.690 296.800 L 221.620 296.800 222.048 295.700 C 223.189 292.768,221.755 287.626,219.264 285.720 C 217.466 284.345,211.051 283.866,209.200 284.970 M230.000 284.672 C 227.522 285.706,226.022 289.351,226.769 292.526 C 227.124 294.035,229.620 296.747,230.688 296.783 C 231.104 296.798,232.941 297.608,235.200 298.773 C 236.159 299.268,236.611 301.019,236.080 302.184 C 235.531 303.388,231.438 303.651,229.600 302.600 C 227.976 301.672,227.306 301.867,226.795 303.416 C 225.259 308.070,237.219 308.997,240.656 304.491 C 243.289 301.038,240.806 294.000,236.954 294.000 C 236.685 294.000,235.541 293.536,234.411 292.968 C 229.598 290.550,231.779 287.433,237.457 288.615 C 240.512 289.252,242.300 286.943,240.140 285.150 C 239.444 284.573,231.172 284.182,230.000 284.672 M248.558 285.160 C 244.789 287.459,244.606 293.032,248.209 295.780 C 248.945 296.341,249.652 296.800,249.781 296.800 C 250.647 296.800,254.731 299.038,255.323 299.836 C 257.185 302.348,251.685 304.584,248.606 302.567 C 246.867 301.428,244.654 303.746,245.765 305.543 C 246.821 307.253,254.171 307.880,257.115 306.512 C 262.701 303.916,261.994 295.737,256.032 293.970 C 249.274 291.967,249.598 286.982,256.383 288.565 L 258.797 289.128 259.635 287.950 C 260.404 286.870,260.423 286.695,259.865 285.843 C 258.795 284.211,250.898 283.734,248.558 285.160 M215.138 288.622 C 216.728 289.258,217.600 290.503,217.600 292.139 C 217.600 293.668,216.850 294.000,213.396 294.000 C 209.348 294.000,208.639 293.588,209.204 291.560 C 209.744 289.618,210.368 289.105,213.492 288.032 C 213.542 288.014,214.283 288.280,215.138 288.622 " stroke="none" fill="#161616" fill-rule="evenodd"></path><path id="path2" d="M0.000 200.000 L 0.000 400.000 200.000 400.000 L 400.000 400.000 400.000 389.800 L 400.000 379.600 202.833 379.600 C 94.391 379.600,5.381 379.491,5.033 379.357 C 4.002 378.962,4.069 99.268,5.100 98.085 C 5.539 97.581,9.231 96.121,15.000 94.170 C 24.131 91.082,35.385 87.230,54.600 80.617 C 60.100 78.724,68.380 75.904,73.000 74.350 C 77.620 72.795,81.580 71.392,81.800 71.230 C 82.020 71.069,83.820 70.445,85.800 69.843 C 87.780 69.241,90.300 68.415,91.400 68.006 C 92.500 67.598,93.850 67.148,94.400 67.007 C 94.950 66.865,95.760 66.598,96.200 66.412 C 96.640 66.225,97.810 65.804,98.800 65.475 C 101.665 64.522,104.100 63.610,105.460 62.982 C 106.154 62.662,106.964 62.399,107.260 62.397 C 107.939 62.393,116.983 59.344,118.120 58.736 C 118.584 58.488,119.781 58.050,120.782 57.763 C 123.196 57.071,126.274 56.058,128.000 55.387 C 128.770 55.088,131.020 54.359,133.000 53.768 C 134.980 53.177,137.050 52.470,137.600 52.196 C 139.246 51.376,142.904 50.079,144.400 49.784 C 145.170 49.632,145.987 49.358,146.216 49.175 C 146.444 48.992,147.344 48.664,148.216 48.446 C 149.087 48.228,151.780 47.344,154.200 46.482 C 165.029 42.621,166.808 41.997,170.200 40.872 C 172.180 40.214,175.023 39.209,176.518 38.638 C 178.013 38.067,179.871 37.600,180.647 37.600 C 181.423 37.600,182.810 37.168,183.729 36.641 C 184.648 36.113,186.570 35.275,188.000 34.778 C 191.530 33.552,191.600 33.426,191.600 28.297 C 191.600 20.978,193.148 20.394,197.474 26.079 C 198.093 26.893,201.570 31.450,205.200 36.205 C 208.830 40.961,212.160 45.359,212.600 45.977 C 213.040 46.596,215.073 49.314,217.117 52.017 C 221.301 57.549,221.350 57.766,219.176 61.200 C 218.549 62.190,217.299 64.260,216.398 65.800 C 215.497 67.340,214.454 69.088,214.080 69.685 C 212.979 71.440,205.923 83.396,204.388 86.107 C 203.611 87.478,202.306 89.609,201.488 90.841 C 200.670 92.074,200.000 93.196,200.000 93.334 C 200.000 93.472,199.370 94.569,198.600 95.773 C 197.830 96.977,197.200 98.083,197.200 98.231 C 197.200 98.684,193.110 105.200,192.826 105.200 C 191.905 105.200,191.600 103.940,191.600 100.134 C 191.600 94.546,192.132 94.659,180.000 97.659 C 179.010 97.903,176.670 98.452,174.800 98.879 C 172.930 99.305,170.320 99.900,169.000 100.202 C 167.680 100.504,165.700 100.955,164.600 101.206 C 163.500 101.457,160.440 102.185,157.800 102.825 C 153.134 103.956,148.767 104.957,142.200 106.402 C 140.440 106.789,137.200 107.567,135.000 108.130 C 132.800 108.693,129.650 109.441,128.000 109.792 C 122.620 110.936,120.227 111.479,118.600 111.922 C 117.720 112.162,115.290 112.745,113.200 113.218 C 111.110 113.691,107.690 114.497,105.600 115.009 C 103.510 115.522,99.602 116.406,96.915 116.975 C 94.228 117.543,91.561 118.187,90.989 118.404 C 90.416 118.622,89.465 118.808,88.874 118.818 C 88.283 118.827,87.080 119.104,86.200 119.432 C 84.681 119.998,82.259 120.576,76.400 121.768 C 73.834 122.291,70.293 123.121,66.000 124.207 C 64.790 124.514,62.450 125.056,60.800 125.413 C 59.150 125.770,56.360 126.425,54.600 126.870 C 52.840 127.314,50.230 127.914,48.800 128.203 C 47.370 128.492,44.580 129.109,42.600 129.573 C 40.620 130.037,37.892 130.670,36.539 130.979 C 35.185 131.289,33.295 131.807,32.339 132.131 C 31.382 132.455,29.520 132.851,28.200 133.011 C 26.880 133.171,25.305 133.554,24.700 133.861 L 23.600 134.421 23.600 245.778 C 23.600 307.024,23.709 357.419,23.843 357.767 C 24.064 358.343,39.799 358.400,198.194 358.400 C 382.983 358.400,372.452 358.306,376.200 359.997 C 376.640 360.195,378.260 360.836,379.800 361.420 C 383.026 362.645,391.417 365.890,392.600 366.371 C 396.164 367.820,398.912 368.800,399.408 368.800 C 399.930 368.800,400.000 346.948,400.000 184.400 L 400.000 0.000 200.000 0.000 L 0.000 0.000 0.000 200.000 M131.773 150.061 C 132.330 150.314,132.901 150.899,133.043 151.361 C 133.185 151.822,133.553 152.470,133.860 152.800 C 134.167 153.130,134.952 154.120,135.604 155.000 C 136.257 155.880,136.931 156.780,137.102 157.000 C 137.522 157.540,140.500 161.929,141.000 162.746 C 141.220 163.106,141.625 163.544,141.900 163.720 C 142.175 163.896,142.400 164.291,142.400 164.597 C 142.400 164.904,142.770 165.414,143.222 165.730 C 143.674 166.047,144.199 166.822,144.388 167.453 C 144.605 168.178,144.744 165.254,144.766 159.514 C 144.805 149.030,144.673 149.358,148.717 149.693 C 152.159 149.979,152.000 149.165,152.000 166.476 C 152.000 181.067,151.972 181.628,151.200 182.400 C 150.037 183.563,147.109 183.506,146.003 182.300 C 144.403 180.555,141.600 176.654,141.600 176.173 C 141.600 175.905,141.330 175.582,141.000 175.455 C 140.670 175.329,140.400 174.958,140.400 174.632 C 140.400 174.306,140.174 173.896,139.898 173.720 C 139.336 173.363,137.200 170.587,137.200 170.215 C 137.200 170.084,136.480 169.066,135.600 167.952 C 134.720 166.839,134.000 165.674,134.000 165.364 C 134.000 165.054,133.820 164.800,133.600 164.800 C 133.346 164.800,133.200 167.917,133.200 173.351 C 133.200 179.712,133.072 182.005,132.700 182.302 C 130.833 183.796,127.061 183.326,126.432 181.521 C 125.672 179.340,125.850 151.007,126.629 150.229 C 127.374 149.483,130.296 149.388,131.773 150.061 M228.982 150.384 C 229.369 150.706,230.053 151.156,230.503 151.384 C 230.953 151.613,232.059 152.673,232.960 153.741 L 234.600 155.681 234.600 160.341 L 234.600 165.000 233.015 167.100 C 232.143 168.255,231.238 169.200,231.004 169.200 C 230.769 169.200,230.270 169.560,229.893 170.000 C 229.516 170.440,228.792 170.800,228.284 170.800 C 227.776 170.800,227.136 171.025,226.862 171.300 C 226.576 171.586,224.877 171.885,222.882 172.000 L 219.400 172.200 219.200 177.082 C 218.968 182.748,218.888 182.885,215.677 183.117 C 211.774 183.399,212.000 184.441,212.000 166.191 C 212.000 151.620,212.052 150.408,212.700 150.012 C 213.830 149.321,228.094 149.647,228.982 150.384 M282.654 150.606 C 283.036 151.128,283.200 152.654,283.200 155.676 C 283.200 158.292,283.358 160.000,283.600 160.000 C 283.820 160.000,284.000 159.841,284.000 159.646 C 284.000 158.375,289.308 157.719,291.946 158.664 C 295.910 160.084,296.510 161.903,296.692 173.059 L 296.830 181.518 295.761 182.359 C 294.208 183.581,291.476 183.512,290.182 182.218 C 289.218 181.254,289.200 181.115,289.200 174.565 C 289.200 165.621,288.852 164.517,286.105 164.752 C 283.533 164.972,283.200 166.020,283.200 173.902 C 283.200 182.517,283.081 182.817,279.566 183.093 C 275.591 183.406,275.818 184.329,275.680 167.333 C 275.552 151.625,275.638 150.167,276.713 149.853 C 278.339 149.377,282.104 149.854,282.654 150.606 M267.518 156.100 L 267.637 158.800 269.729 158.800 C 272.604 158.800,273.602 159.555,273.594 161.723 C 273.585 164.053,271.864 165.694,270.128 165.028 C 268.110 164.253,267.600 165.331,267.600 170.362 C 267.600 175.888,267.846 176.396,270.529 176.406 C 272.642 176.414,273.120 176.728,273.607 178.425 C 274.601 181.890,273.034 183.205,267.931 183.187 C 261.067 183.162,260.310 181.426,260.396 165.908 C 260.399 165.483,259.975 165.111,259.300 164.946 C 256.738 164.319,256.849 158.800,259.424 158.800 C 260.150 158.800,260.344 158.474,260.644 156.751 C 261.044 154.448,263.020 153.187,266.000 153.332 L 267.400 153.400 267.518 156.100 M220.100 156.413 C 219.246 156.756,219.200 156.992,219.200 160.987 L 219.200 165.200 221.700 165.186 C 224.662 165.169,226.014 164.287,226.791 161.867 C 227.481 159.720,226.463 156.948,224.877 156.654 C 222.101 156.139,220.931 156.080,220.100 156.413 M169.646 158.653 C 173.920 160.051,175.586 162.784,175.596 168.411 C 175.603 172.715,175.468 172.800,168.620 172.800 C 162.401 172.800,162.111 172.909,162.646 175.043 C 163.179 177.163,166.253 177.928,169.647 176.784 C 172.610 175.786,173.252 175.959,174.154 178.004 C 175.146 180.252,174.892 180.839,172.396 182.068 C 169.168 183.657,162.810 183.708,160.178 182.166 C 155.311 179.314,152.699 170.258,155.342 165.400 C 155.701 164.740,155.996 163.972,155.998 163.694 C 155.999 163.415,156.893 162.335,157.985 161.294 C 161.130 158.293,165.512 157.301,169.646 158.653 M253.717 160.312 C 256.107 162.602,256.373 163.938,256.322 173.392 C 256.270 183.093,256.341 182.815,253.846 183.096 C 252.116 183.291,251.902 183.208,250.619 181.848 C 249.594 180.760,249.163 180.524,248.922 180.917 C 247.465 183.298,242.291 183.971,239.442 182.151 C 232.367 177.632,235.551 169.027,244.600 168.212 C 248.584 167.853,249.388 167.299,248.502 165.523 L 247.888 164.293 244.891 164.520 C 243.242 164.644,241.702 164.938,241.467 165.173 C 240.150 166.490,237.507 164.151,237.502 161.664 C 237.495 158.186,250.376 157.111,253.717 160.312 M182.650 159.106 C 183.429 159.615,184.800 162.541,184.800 163.696 C 184.800 164.305,185.160 165.475,185.600 166.296 C 186.040 167.116,186.400 168.376,186.400 169.094 C 186.400 170.744,187.050 170.795,187.406 169.173 C 187.554 168.498,187.927 167.463,188.235 166.873 C 188.543 166.283,188.796 165.553,188.798 165.251 C 188.807 163.095,190.992 159.200,192.333 158.949 C 194.623 158.519,196.524 159.200,196.941 160.600 C 197.138 161.260,197.636 162.540,198.049 163.444 C 198.462 164.348,198.800 165.433,198.800 165.855 C 198.800 166.277,199.047 166.977,199.349 167.411 C 199.651 167.845,200.025 168.785,200.181 169.500 C 200.584 171.354,201.052 171.107,201.315 168.900 C 201.439 167.855,201.823 166.460,202.168 165.800 C 202.513 165.140,202.796 164.218,202.798 163.750 C 202.808 160.242,204.022 158.800,206.967 158.800 C 210.057 158.800,210.966 161.489,208.957 164.686 C 208.650 165.173,208.392 165.983,208.382 166.486 C 208.373 166.989,208.092 168.120,207.758 169.000 C 207.424 169.880,206.917 171.542,206.630 172.694 C 206.343 173.846,205.928 175.016,205.708 175.294 C 205.489 175.572,205.200 176.521,205.065 177.403 C 204.931 178.284,204.366 179.949,203.810 181.103 L 202.798 183.200 200.847 183.200 C 198.603 183.200,197.307 181.951,196.491 179.000 C 195.679 176.068,194.725 173.418,193.858 171.687 L 193.000 169.973 192.666 171.287 C 192.483 172.009,192.078 173.191,191.766 173.914 C 191.455 174.636,191.200 175.543,191.200 175.929 C 191.200 176.315,190.840 177.337,190.400 178.200 C 189.960 179.063,189.600 180.099,189.600 180.503 C 189.600 184.254,183.404 184.023,182.451 180.237 C 182.203 179.253,181.831 178.343,181.623 178.214 C 181.416 178.086,181.119 177.131,180.964 176.091 C 180.809 175.051,180.448 173.840,180.162 173.400 C 179.875 172.960,179.513 171.790,179.358 170.800 C 179.202 169.810,178.846 168.640,178.567 168.200 C 178.288 167.760,177.929 166.680,177.769 165.800 C 177.610 164.920,177.258 163.840,176.988 163.400 C 176.131 162.003,175.965 160.092,176.642 159.415 C 177.291 158.766,181.776 158.535,182.650 159.106 M164.000 164.692 C 163.148 165.016,162.813 165.635,162.806 166.900 C 162.798 168.298,168.354 168.692,168.446 167.300 C 168.620 164.658,166.836 163.612,164.000 164.692 M245.479 173.273 C 242.119 174.755,243.661 177.195,247.355 176.241 C 248.610 175.917,249.256 174.257,248.530 173.221 C 247.831 172.223,247.861 172.223,245.479 173.273 M119.874 214.374 C 120.383 215.337,120.800 216.692,120.800 217.383 C 120.800 218.074,121.000 218.840,121.244 219.084 C 121.488 219.328,121.928 220.489,122.220 221.664 C 122.512 222.839,123.024 224.520,123.358 225.400 C 123.692 226.280,123.973 227.495,123.982 228.100 C 124.028 230.949,125.775 228.196,126.204 224.600 C 126.361 223.280,126.729 221.660,127.022 221.000 C 127.314 220.340,127.674 218.720,127.822 217.400 C 127.969 216.080,128.360 214.415,128.691 213.700 L 129.291 212.400 132.619 212.400 C 136.651 212.400,137.501 213.833,135.340 216.989 C 135.043 217.423,134.800 218.271,134.800 218.874 C 134.800 219.477,134.440 220.884,134.000 222.000 C 133.560 223.116,133.200 224.543,133.200 225.171 C 133.200 225.799,132.844 227.097,132.409 228.056 C 131.974 229.015,131.614 230.275,131.609 230.856 C 131.604 231.437,131.244 232.697,130.809 233.656 C 130.374 234.615,130.013 235.940,130.006 236.600 C 130.000 237.260,129.737 238.294,129.422 238.898 C 129.107 239.502,128.727 240.852,128.577 241.898 C 127.933 246.394,122.674 247.293,121.590 243.093 C 121.350 242.162,120.894 240.833,120.577 240.140 C 120.259 239.446,120.000 238.501,120.000 238.038 C 120.000 237.576,119.640 236.525,119.200 235.704 C 118.760 234.884,118.400 233.795,118.400 233.286 C 118.400 232.777,118.111 231.802,117.758 231.119 C 117.405 230.436,116.984 229.050,116.823 228.039 C 116.540 226.268,116.519 226.244,116.244 227.400 C 116.087 228.060,115.704 229.140,115.393 229.800 C 115.082 230.460,114.716 231.540,114.581 232.200 C 114.445 232.860,113.989 234.243,113.567 235.274 C 113.145 236.305,112.799 237.475,112.798 237.874 C 112.796 238.273,112.552 239.067,112.254 239.637 C 111.956 240.208,111.583 241.378,111.424 242.237 C 110.750 245.884,104.400 247.232,104.400 243.728 C 104.400 243.427,104.040 242.156,103.600 240.904 C 103.160 239.652,102.799 238.171,102.798 237.614 C 102.796 237.056,102.518 236.068,102.179 235.418 C 101.840 234.768,101.459 233.418,101.333 232.418 C 101.207 231.418,100.878 230.236,100.602 229.790 C 100.326 229.345,99.967 227.995,99.805 226.790 C 99.643 225.586,99.264 224.150,98.964 223.600 C 98.663 223.050,98.248 221.700,98.041 220.600 C 97.833 219.500,97.370 217.806,97.011 216.835 C 96.653 215.864,96.413 214.514,96.480 213.835 L 96.600 212.600 100.081 212.485 C 104.167 212.349,104.557 212.658,105.030 216.400 C 105.184 217.610,105.537 219.052,105.816 219.605 C 106.094 220.158,106.441 221.508,106.587 222.605 C 106.732 223.702,107.097 225.230,107.399 226.000 C 107.700 226.770,108.079 228.120,108.241 229.000 L 108.535 230.600 108.894 228.800 C 109.091 227.810,109.510 226.460,109.825 225.800 C 110.140 225.140,110.510 223.970,110.647 223.200 C 110.785 222.430,111.123 221.436,111.398 220.991 C 111.674 220.546,112.032 219.376,112.195 218.391 C 112.357 217.406,112.720 216.150,113.000 215.600 C 113.281 215.050,113.700 214.118,113.933 213.529 C 114.812 211.306,118.531 211.835,119.874 214.374 M145.259 213.174 C 148.406 217.060,142.165 221.455,138.519 217.922 C 136.810 216.265,136.784 214.853,138.431 213.168 C 140.012 211.551,143.948 211.555,145.259 213.174 M157.100 213.108 C 157.475 213.592,157.600 216.823,157.600 226.053 C 157.600 239.076,157.604 239.104,159.474 238.862 C 161.668 238.579,162.682 243.956,160.682 245.260 C 159.922 245.755,155.393 246.021,154.119 245.645 C 152.718 245.231,151.726 244.386,150.680 242.714 C 149.795 241.301,149.628 213.600,150.500 212.892 C 151.670 211.942,156.314 212.094,157.100 213.108 M183.597 213.392 C 184.386 215.468,184.192 244.470,183.385 245.060 C 182.287 245.863,180.241 245.730,179.400 244.800 C 178.459 243.760,177.454 243.788,175.954 244.897 C 174.136 246.241,169.212 246.149,167.143 244.732 C 165.228 243.420,163.603 241.642,163.587 240.842 C 163.580 240.489,163.310 239.851,162.987 239.424 C 161.887 237.968,162.176 229.551,163.417 226.927 C 165.536 222.447,172.899 218.659,175.137 220.897 C 175.995 221.755,176.387 220.459,176.394 216.749 C 176.402 212.343,176.702 212.060,181.076 212.338 C 182.906 212.455,183.304 212.621,183.597 213.392 M202.431 213.169 C 203.207 213.945,203.600 214.745,203.600 215.546 C 203.600 216.210,203.775 216.861,203.989 216.993 C 204.203 217.126,204.568 217.991,204.801 218.917 C 205.033 219.843,205.467 221.050,205.765 221.600 C 206.064 222.150,206.429 223.167,206.577 223.861 C 206.725 224.554,207.196 225.808,207.623 226.646 C 208.050 227.484,208.400 228.649,208.400 229.236 C 208.400 229.822,208.650 230.510,208.957 230.764 C 209.263 231.018,209.631 232.015,209.776 232.980 C 209.921 233.945,210.286 234.940,210.588 235.190 C 210.890 235.441,211.264 236.401,211.418 237.323 C 211.572 238.245,211.859 239.102,212.055 239.227 C 212.713 239.646,213.414 243.971,212.945 244.718 C 212.502 245.425,209.098 245.867,207.421 245.436 C 206.549 245.212,204.632 241.869,204.191 239.804 C 203.836 238.134,203.496 238.013,199.149 238.006 C 194.865 237.999,194.649 238.111,194.084 240.624 C 193.887 241.499,193.246 242.977,192.658 243.908 L 191.590 245.600 189.009 245.600 C 185.473 245.600,184.688 244.155,186.400 240.800 C 186.840 239.938,187.206 238.910,187.214 238.516 C 187.221 238.122,187.575 237.080,188.000 236.200 C 188.425 235.320,188.779 234.327,188.786 233.994 C 188.794 233.661,189.160 232.716,189.600 231.896 C 190.040 231.075,190.406 230.087,190.414 229.701 C 190.421 229.316,190.775 228.280,191.200 227.400 C 191.625 226.520,191.979 225.435,191.986 224.989 C 191.994 224.543,192.247 223.823,192.549 223.389 C 192.851 222.955,193.228 221.970,193.388 221.200 C 193.548 220.430,193.907 219.437,194.187 218.994 C 194.466 218.551,194.833 217.561,195.001 216.794 C 196.032 212.095,199.610 210.349,202.431 213.169 M262.823 213.289 C 265.179 215.869,263.330 219.200,259.540 219.200 C 255.476 219.200,253.373 213.247,257.095 212.277 C 259.563 211.633,261.646 212.001,262.823 213.289 M319.120 216.080 C 319.384 216.344,319.603 217.379,319.606 218.380 C 319.614 220.799,320.021 221.344,321.770 221.278 C 324.647 221.170,325.200 221.674,325.200 224.403 C 325.200 227.084,324.975 227.325,322.423 227.373 C 319.891 227.421,319.511 228.226,319.666 233.221 C 319.823 238.315,320.217 239.041,322.729 238.859 C 325.472 238.661,326.659 243.138,324.331 244.901 C 321.706 246.888,313.600 245.453,313.600 243.002 C 313.600 242.725,313.330 242.274,313.000 242.000 C 312.514 241.597,312.399 240.315,312.395 235.251 C 312.388 228.014,312.251 227.200,311.033 227.200 C 308.274 227.200,308.430 221.922,311.200 221.538 C 312.080 221.417,312.224 221.163,312.400 219.417 C 312.597 217.458,312.625 217.425,314.543 216.741 C 315.611 216.360,316.586 215.947,316.709 215.824 C 317.108 215.425,318.627 215.587,319.120 216.080 M230.629 221.049 C 232.710 221.735,235.878 224.663,236.202 226.200 C 237.379 231.789,236.931 237.808,235.131 240.600 C 233.826 242.624,232.171 244.400,231.591 244.400 C 231.344 244.400,230.898 244.645,230.598 244.945 C 229.885 245.658,226.391 246.108,224.162 245.773 L 222.400 245.509 222.400 249.326 C 222.400 254.028,222.135 254.400,218.794 254.400 C 215.033 254.400,215.200 255.181,215.200 237.560 C 215.200 220.836,215.054 221.704,217.938 221.318 C 219.182 221.151,219.682 221.282,220.354 221.954 C 221.328 222.928,221.652 222.988,222.325 222.315 C 223.994 220.646,227.693 220.082,230.629 221.049 M280.840 220.834 C 283.981 221.838,284.353 222.076,284.610 223.247 C 285.068 225.332,282.310 229.073,281.400 227.600 C 281.050 227.034,277.130 227.127,276.351 227.720 C 273.964 229.537,273.297 233.668,274.899 236.714 C 276.029 238.864,276.861 239.125,281.519 238.791 C 284.335 238.589,286.144 242.807,283.817 244.148 C 283.386 244.397,282.810 244.803,282.537 245.051 C 280.227 247.150,272.646 245.860,269.656 242.859 C 266.841 240.034,265.526 229.312,267.700 226.910 C 268.085 226.485,268.400 225.939,268.400 225.696 C 268.400 222.736,276.673 219.503,280.840 220.834 M301.437 221.211 C 304.109 222.128,307.783 225.580,308.147 227.515 C 309.116 232.665,308.659 238.719,307.143 240.827 C 305.960 242.470,303.999 244.400,303.512 244.400 C 303.309 244.400,302.897 244.645,302.597 244.945 C 301.263 246.280,293.944 246.139,292.341 244.749 C 291.866 244.337,291.319 244.000,291.125 244.000 C 290.756 244.000,289.090 242.326,287.900 240.759 C 287.515 240.252,287.200 239.418,287.200 238.906 C 287.200 238.393,286.930 237.328,286.600 236.538 C 285.524 233.963,286.010 230.141,287.932 226.067 C 290.053 221.572,296.127 219.388,301.437 221.211 M253.159 221.457 C 254.012 222.054,254.074 222.311,253.840 224.299 C 253.461 227.521,253.096 228.000,251.012 228.000 C 250.044 228.000,248.790 228.176,248.226 228.390 L 247.200 228.780 247.200 236.208 C 247.200 245.003,246.951 245.605,243.318 245.594 C 239.646 245.582,239.600 245.424,239.600 232.836 L 239.600 222.418 240.599 221.764 C 241.977 220.861,245.012 221.302,245.652 222.496 C 246.097 223.328,246.116 223.330,246.668 222.572 C 247.846 220.957,251.540 220.322,253.159 221.457 M145.158 221.774 C 146.075 222.341,145.741 243.859,144.800 244.800 C 143.762 245.838,140.222 245.924,139.131 244.938 C 138.031 243.942,138.002 222.286,139.100 221.606 C 139.822 221.158,144.366 221.284,145.158 221.774 M262.615 222.167 C 263.482 223.491,263.335 243.875,262.451 244.939 C 261.678 245.870,257.986 245.844,256.834 244.900 C 255.993 244.211,255.981 244.019,256.090 233.018 L 256.200 221.836 257.200 221.558 C 259.601 220.890,261.952 221.155,262.615 222.167 M199.038 225.400 C 198.880 226.280,198.389 227.764,197.948 228.699 C 196.798 231.132,197.187 232.000,199.427 232.000 C 201.367 232.000,201.853 230.768,200.736 228.681 C 200.482 228.205,200.060 226.912,199.800 225.808 L 199.327 223.800 199.038 225.400 M225.086 227.088 C 222.910 227.624,222.400 228.936,222.400 234.000 L 222.400 238.764 223.797 239.026 C 227.819 239.780,229.204 238.240,229.187 233.030 C 229.170 228.001,228.039 226.362,225.086 227.088 M296.644 227.097 C 293.799 227.788,292.689 236.487,295.200 238.415 C 298.537 240.976,301.205 238.672,301.187 233.245 C 301.171 228.327,299.711 226.352,296.644 227.097 M171.518 227.882 C 168.794 230.945,169.186 238.382,172.105 239.023 C 175.934 239.864,176.513 238.872,176.320 231.800 L 176.200 227.400 174.178 227.282 C 172.634 227.192,172.006 227.333,171.518 227.882 M178.790 275.391 C 179.160 275.726,179.661 276.000,179.903 276.000 C 180.398 276.000,183.200 278.536,183.200 278.984 C 183.200 279.143,183.560 279.731,184.000 280.291 C 184.682 281.157,184.800 281.914,184.800 285.400 C 184.800 288.886,184.682 289.643,184.000 290.509 C 183.560 291.069,183.200 291.676,183.200 291.858 C 183.200 292.482,179.403 295.633,178.400 295.841 C 177.850 295.955,177.040 296.250,176.600 296.496 C 176.160 296.743,174.315 297.025,172.500 297.122 L 169.200 297.300 169.200 302.022 C 169.200 307.790,169.066 308.000,165.386 308.000 C 163.267 308.000,162.757 307.867,162.414 307.226 C 161.931 306.325,161.836 276.076,162.314 275.326 C 163.004 274.241,177.583 274.299,178.790 275.391 M169.372 281.728 C 169.261 282.019,169.221 284.044,169.285 286.228 L 169.400 290.200 171.848 290.164 C 177.145 290.087,179.330 282.963,174.471 281.613 C 172.366 281.028,169.617 281.091,169.372 281.728 M216.904 283.531 C 221.300 284.903,223.600 288.247,223.600 293.264 C 223.600 297.716,223.460 297.800,215.986 297.800 C 210.154 297.800,210.052 297.815,209.883 298.700 C 209.402 301.217,213.756 303.130,216.938 301.800 C 219.818 300.597,222.415 301.941,222.394 304.625 C 222.358 309.137,209.362 309.734,205.518 305.400 C 202.364 301.843,201.334 293.061,203.581 288.875 C 206.074 284.229,211.793 281.935,216.904 283.531 M237.174 283.378 C 238.398 283.696,239.872 284.053,240.449 284.173 C 242.071 284.508,242.686 286.370,241.738 288.073 C 240.789 289.777,239.968 290.407,239.206 290.017 C 238.297 289.552,234.595 289.150,233.851 289.436 C 232.729 289.866,233.041 291.546,234.300 291.854 C 234.905 292.002,236.027 292.455,236.794 292.861 C 237.561 293.268,238.421 293.600,238.707 293.600 C 238.992 293.600,239.329 293.870,239.455 294.200 C 239.582 294.530,239.902 294.800,240.168 294.800 C 242.537 294.800,243.634 302.584,241.609 305.029 C 238.106 309.258,226.066 309.564,225.266 305.444 C 224.670 302.373,227.530 300.561,231.000 301.812 C 233.133 302.580,233.737 302.547,234.856 301.601 L 235.800 300.802 234.678 299.801 C 234.060 299.251,233.310 298.800,233.011 298.800 C 230.925 298.800,226.000 294.873,226.000 293.210 C 226.000 292.790,225.820 292.336,225.600 292.200 C 225.109 291.896,225.067 289.329,225.548 289.032 C 225.740 288.914,226.002 288.289,226.131 287.644 C 226.821 284.194,232.246 282.099,237.174 283.378 M257.158 283.580 C 260.833 284.411,261.185 284.697,261.194 286.864 C 261.201 288.510,259.138 290.758,258.255 290.067 C 257.617 289.567,254.114 289.156,252.961 289.446 C 251.826 289.730,251.648 291.105,252.700 291.463 C 253.085 291.594,254.334 292.129,255.475 292.651 C 256.617 293.173,257.705 293.600,257.894 293.600 C 259.672 293.600,262.862 299.668,262.037 301.480 C 261.796 302.007,261.600 302.810,261.600 303.265 C 261.600 304.933,257.830 307.914,255.325 308.227 C 250.916 308.777,244.902 307.430,244.758 305.860 C 244.355 301.491,245.840 300.566,250.917 302.024 C 252.969 302.614,254.084 302.305,254.325 301.082 C 254.501 300.187,252.983 298.800,251.829 298.800 C 251.294 298.800,250.611 298.554,250.310 298.253 C 250.009 297.952,249.392 297.588,248.940 297.444 C 247.280 296.918,245.249 294.402,244.968 292.525 C 243.873 285.225,248.716 281.671,257.158 283.580 M200.865 283.834 C 203.469 285.180,201.948 290.523,199.000 290.384 C 195.205 290.205,194.680 291.316,194.754 299.366 C 194.829 307.466,194.716 307.754,191.389 307.917 C 187.248 308.118,187.419 308.607,187.281 296.241 C 187.202 289.167,187.307 285.347,187.595 284.808 C 188.208 283.664,191.995 283.657,193.596 284.797 C 194.565 285.487,194.748 285.512,194.952 284.981 C 195.532 283.470,198.898 282.817,200.865 283.834 M212.229 289.475 C 211.161 289.767,210.029 291.218,210.013 292.316 C 209.991 293.830,216.542 293.501,216.719 291.979 C 216.922 290.236,214.463 288.865,212.229 289.475 " stroke="none" fill="#fbfbfb" fill-rule="evenodd"></path><path id="path3" d="M36.600 128.800 C 35.961 129.075,36.107 129.149,37.324 129.172 C 38.244 129.189,38.749 129.042,38.600 128.800 C 38.308 128.328,37.699 128.328,36.600 128.800 M28.305 360.283 C 28.802 360.379,29.522 360.375,29.905 360.275 C 30.287 360.175,29.880 360.096,29.000 360.101 C 28.120 360.105,27.807 360.187,28.305 360.283 M368.900 360.287 C 369.505 360.378,370.495 360.378,371.100 360.287 C 371.705 360.195,371.210 360.120,370.000 360.120 C 368.790 360.120,368.295 360.195,368.900 360.287 " stroke="none" fill="#ec7c12" fill-rule="evenodd"></path><path id="path4" d="M216.764 51.933 C 216.980 52.336,217.471 52.921,217.855 53.233 C 218.287 53.584,218.190 53.304,217.601 52.500 C 216.551 51.065,216.157 50.798,216.764 51.933 M191.653 103.051 C 191.593 104.469,192.569 105.591,193.260 104.900 C 193.561 104.599,193.469 104.493,192.946 104.537 C 192.398 104.584,192.143 104.239,191.956 103.200 L 191.705 101.800 191.653 103.051 M23.298 246.076 C 23.244 307.388,23.335 357.636,23.500 357.738 C 23.771 357.906,23.770 283.059,23.498 175.000 C 23.442 152.780,23.352 184.764,23.298 246.076 M126.629 150.229 C 125.850 151.007,125.672 179.340,126.432 181.521 C 127.061 183.326,130.833 183.796,132.700 182.302 C 133.072 182.005,133.200 179.712,133.200 173.351 C 133.200 167.917,133.346 164.800,133.600 164.800 C 133.820 164.800,134.000 165.054,134.000 165.364 C 134.000 165.674,134.720 166.839,135.600 167.952 C 136.480 169.066,137.200 170.084,137.200 170.215 C 137.200 170.587,139.336 173.363,139.898 173.720 C 140.174 173.896,140.400 174.306,140.400 174.632 C 140.400 174.958,140.670 175.329,141.000 175.455 C 141.330 175.582,141.600 175.905,141.600 176.173 C 141.600 176.654,144.403 180.555,146.003 182.300 C 147.109 183.506,150.037 183.563,151.200 182.400 C 151.972 181.628,152.000 181.067,152.000 166.476 C 152.000 149.165,152.159 149.979,148.717 149.693 C 144.673 149.358,144.805 149.030,144.766 159.514 C 144.744 165.254,144.605 168.178,144.388 167.453 C 144.199 166.822,143.674 166.047,143.222 165.730 C 142.770 165.414,142.400 164.904,142.400 164.597 C 142.400 164.291,142.175 163.896,141.900 163.720 C 141.625 163.544,141.220 163.106,141.000 162.746 C 140.500 161.929,137.522 157.540,137.102 157.000 C 136.931 156.780,136.257 155.880,135.604 155.000 C 134.952 154.120,134.167 153.130,133.860 152.800 C 133.553 152.470,133.185 151.822,133.043 151.361 C 132.528 149.689,127.973 148.885,126.629 150.229 M212.700 150.012 C 212.052 150.408,212.000 151.620,212.000 166.191 C 212.000 184.441,211.774 183.399,215.677 183.117 C 218.888 182.885,218.968 182.748,219.200 177.082 L 219.400 172.200 222.882 172.000 C 224.877 171.885,226.576 171.586,226.862 171.300 C 227.136 171.025,227.776 170.800,228.284 170.800 C 228.792 170.800,229.516 170.440,229.893 170.000 C 230.270 169.560,230.769 169.200,231.004 169.200 C 231.238 169.200,232.143 168.255,233.015 167.100 L 234.600 165.000 234.600 160.341 L 234.600 155.681 232.960 153.741 C 232.059 152.673,230.953 151.613,230.503 151.384 C 230.053 151.156,229.369 150.706,228.982 150.384 C 228.094 149.647,213.830 149.321,212.700 150.012 M276.713 149.853 C 275.638 150.167,275.552 151.625,275.680 167.333 C 275.818 184.329,275.591 183.406,279.566 183.093 C 283.081 182.817,283.200 182.517,283.200 173.902 C 283.200 166.020,283.533 164.972,286.105 164.752 C 288.852 164.517,289.200 165.621,289.200 174.565 C 289.200 181.115,289.218 181.254,290.182 182.218 C 291.476 183.512,294.208 183.581,295.761 182.359 L 296.830 181.518 296.692 173.059 C 296.510 161.903,295.910 160.084,291.946 158.664 C 289.308 157.719,284.000 158.375,284.000 159.646 C 284.000 159.841,283.820 160.000,283.600 160.000 C 283.358 160.000,283.200 158.292,283.200 155.676 C 283.200 150.273,282.981 149.897,279.754 149.755 C 278.459 149.698,277.091 149.742,276.713 149.853 M228.248 151.438 C 232.296 153.229,234.000 155.882,234.000 160.397 C 234.000 166.804,230.355 170.292,223.252 170.681 C 218.375 170.948,218.400 170.919,218.400 176.427 C 218.400 181.456,218.243 181.700,215.132 181.522 L 213.000 181.400 212.895 166.425 C 212.824 156.292,212.927 151.312,213.213 151.025 C 214.432 149.802,225.218 150.098,228.248 151.438 M131.500 151.103 C 131.885 151.490,132.877 152.795,133.705 154.003 C 135.881 157.181,139.074 161.672,139.817 162.600 C 141.043 164.132,143.159 167.409,143.757 168.700 C 145.275 171.977,145.600 170.591,145.600 160.833 C 145.600 155.791,145.709 151.381,145.843 151.033 C 146.172 150.174,149.314 150.171,150.171 151.029 C 151.182 152.039,151.115 180.673,150.100 181.443 C 148.511 182.649,146.476 181.799,144.800 179.229 C 144.288 178.445,142.792 176.404,141.698 175.000 C 141.527 174.780,140.670 173.545,139.793 172.255 C 138.917 170.966,137.525 168.986,136.699 167.855 C 135.874 166.725,134.910 165.145,134.556 164.345 C 134.203 163.544,133.528 162.713,133.057 162.498 L 132.200 162.108 132.200 171.754 L 132.200 181.400 129.964 181.518 C 126.852 181.682,126.986 182.436,127.114 165.500 L 127.228 150.400 129.014 150.400 C 130.186 150.400,131.041 150.642,131.500 151.103 M281.120 150.880 C 281.434 151.194,281.600 152.846,281.600 155.647 C 281.600 161.307,282.486 162.736,284.570 160.433 C 286.182 158.652,291.683 158.926,293.689 160.887 C 295.341 162.502,295.562 163.919,295.583 173.051 C 295.602 181.692,295.589 181.730,292.730 181.524 L 291.000 181.400 290.780 174.200 C 290.498 164.936,289.480 162.924,285.559 163.877 C 282.445 164.635,281.551 167.045,281.622 174.502 C 281.687 181.415,281.575 181.697,278.835 181.519 L 277.000 181.400 276.895 166.401 C 276.837 158.152,276.877 151.177,276.982 150.901 C 277.230 150.255,280.478 150.238,281.120 150.880 M262.800 153.983 C 261.089 154.666,260.982 154.802,260.644 156.751 C 260.344 158.474,260.150 158.800,259.424 158.800 C 256.849 158.800,256.738 164.319,259.300 164.946 C 259.975 165.111,260.399 165.483,260.396 165.908 C 260.310 181.426,261.067 183.162,267.931 183.187 C 273.034 183.205,274.601 181.890,273.607 178.425 C 273.120 176.728,272.642 176.414,270.529 176.406 C 267.846 176.396,267.600 175.888,267.600 170.362 C 267.600 165.331,268.110 164.253,270.128 165.028 C 271.864 165.694,273.585 164.053,273.594 161.723 C 273.602 159.555,272.604 158.800,269.729 158.800 L 267.637 158.800 267.518 156.100 L 267.400 153.400 266.000 153.332 C 265.230 153.294,263.790 153.587,262.800 153.983 M266.800 156.551 C 266.800 159.124,267.170 159.508,269.810 159.674 L 271.800 159.800 271.800 161.800 L 271.800 163.800 269.810 163.926 C 266.729 164.120,266.725 164.129,266.872 170.696 C 267.017 177.229,267.510 178.269,270.233 177.801 C 273.062 177.315,273.993 180.412,271.368 181.573 C 264.602 184.566,261.603 181.644,261.595 172.051 C 261.588 164.968,261.485 164.496,259.853 164.076 C 258.000 163.598,257.703 160.182,259.479 159.758 C 261.184 159.350,261.600 158.843,261.600 157.175 C 261.600 155.527,261.868 155.231,263.765 154.777 C 266.636 154.091,266.800 154.187,266.800 156.551 M218.814 155.574 C 218.235 156.656,218.270 165.473,218.856 165.834 C 222.360 168.000,228.829 164.011,228.293 160.014 C 227.760 156.046,220.405 152.600,218.814 155.574 M224.877 156.654 C 226.463 156.948,227.481 159.720,226.791 161.867 C 226.014 164.287,224.662 165.169,221.700 165.186 L 219.200 165.200 219.200 160.987 C 219.200 155.722,219.328 155.624,224.877 156.654 M162.085 158.739 C 159.946 159.407,156.003 162.617,155.998 163.694 C 155.996 163.972,155.701 164.740,155.342 165.400 C 152.699 170.258,155.311 179.314,160.178 182.166 C 162.810 183.708,169.168 183.657,172.396 182.068 C 174.892 180.839,175.146 180.252,174.154 178.004 C 173.252 175.959,172.610 175.786,169.647 176.784 C 166.253 177.928,163.179 177.163,162.646 175.043 C 162.111 172.909,162.401 172.800,168.620 172.800 C 175.860 172.800,176.594 171.868,175.339 164.275 C 174.579 159.673,167.954 156.906,162.085 158.739 M243.106 158.785 C 237.337 159.611,236.376 160.695,238.391 164.100 C 239.295 165.627,240.568 166.072,241.467 165.173 C 241.702 164.938,243.242 164.644,244.891 164.520 L 247.888 164.293 248.502 165.523 C 249.388 167.299,248.584 167.853,244.600 168.212 C 235.551 169.027,232.367 177.632,239.442 182.151 C 242.291 183.971,247.465 183.298,248.922 180.917 C 249.163 180.524,249.594 180.760,250.619 181.848 C 252.049 183.364,255.197 183.700,255.987 182.420 C 256.715 181.243,256.395 164.890,255.609 163.114 C 253.756 158.925,250.354 157.747,243.106 158.785 M176.642 159.415 C 175.965 160.092,176.131 162.003,176.988 163.400 C 177.258 163.840,177.610 164.920,177.769 165.800 C 177.929 166.680,178.288 167.760,178.567 168.200 C 178.846 168.640,179.202 169.810,179.358 170.800 C 179.513 171.790,179.875 172.960,180.162 173.400 C 180.448 173.840,180.809 175.051,180.964 176.091 C 181.119 177.131,181.416 178.086,181.623 178.214 C 181.831 178.343,182.203 179.253,182.451 180.237 C 183.404 184.023,189.600 184.254,189.600 180.503 C 189.600 180.099,189.960 179.063,190.400 178.200 C 190.840 177.337,191.200 176.315,191.200 175.929 C 191.200 175.543,191.455 174.636,191.766 173.914 C 192.078 173.191,192.483 172.009,192.666 171.287 L 193.000 169.973 193.858 171.687 C 194.725 173.418,195.679 176.068,196.491 179.000 C 197.307 181.951,198.603 183.200,200.847 183.200 L 202.798 183.200 203.810 181.103 C 204.366 179.949,204.931 178.284,205.065 177.403 C 205.200 176.521,205.489 175.572,205.708 175.294 C 205.928 175.016,206.343 173.846,206.630 172.694 C 206.917 171.542,207.424 169.880,207.758 169.000 C 208.092 168.120,208.373 166.989,208.382 166.486 C 208.392 165.983,208.650 165.173,208.957 164.686 C 210.966 161.489,210.057 158.800,206.967 158.800 C 204.022 158.800,202.808 160.242,202.798 163.750 C 202.796 164.218,202.513 165.140,202.168 165.800 C 201.823 166.460,201.439 167.855,201.315 168.900 C 201.052 171.107,200.584 171.354,200.181 169.500 C 200.025 168.785,199.651 167.845,199.349 167.411 C 199.047 166.977,198.800 166.277,198.800 165.855 C 198.800 165.433,198.462 164.348,198.049 163.444 C 197.636 162.540,197.138 161.260,196.941 160.600 C 196.524 159.200,194.623 158.519,192.333 158.949 C 190.992 159.200,188.807 163.095,188.798 165.251 C 188.796 165.553,188.543 166.283,188.235 166.873 C 187.927 167.463,187.554 168.498,187.406 169.173 C 187.050 170.795,186.400 170.744,186.400 169.094 C 186.400 168.376,186.040 167.116,185.600 166.296 C 185.160 165.475,184.800 164.305,184.800 163.696 C 184.800 162.541,183.429 159.615,182.650 159.106 C 181.776 158.535,177.291 158.766,176.642 159.415 M169.064 159.557 C 172.823 160.285,174.916 163.551,174.720 168.383 C 174.573 172.024,174.829 171.904,167.090 171.960 L 161.580 172.000 161.184 173.043 C 159.901 176.417,166.292 179.808,170.146 177.798 C 171.797 176.936,172.606 177.057,173.148 178.246 C 173.918 179.935,173.399 180.625,170.661 181.550 C 160.948 184.831,154.129 178.491,155.978 167.900 C 157.162 161.125,161.821 158.154,169.064 159.557 M183.081 161.600 C 183.393 162.590,183.889 164.300,184.183 165.400 C 184.477 166.500,184.918 167.940,185.162 168.600 C 185.405 169.260,185.794 170.577,186.025 171.526 C 186.256 172.475,186.630 173.190,186.857 173.114 C 187.265 172.978,190.067 165.288,190.834 162.200 C 191.874 158.016,195.583 158.660,196.807 163.236 C 197.066 164.206,197.418 165.180,197.590 165.400 C 197.761 165.620,198.182 166.700,198.524 167.800 C 200.483 174.084,200.911 174.657,201.585 171.900 C 201.814 170.965,202.259 169.390,202.574 168.400 C 202.890 167.410,203.338 165.652,203.571 164.494 C 204.406 160.337,204.916 159.600,206.956 159.600 C 207.944 159.600,208.856 159.767,208.983 159.972 C 209.205 160.332,207.489 166.809,206.934 167.707 C 206.783 167.951,206.430 169.061,206.150 170.175 C 205.869 171.289,205.381 173.010,205.065 174.000 C 204.750 174.990,204.095 177.092,203.610 178.671 C 202.698 181.642,202.348 182.000,200.350 182.000 C 199.150 182.000,196.801 178.244,196.800 176.324 C 196.800 175.952,196.642 175.550,196.449 175.430 C 196.256 175.311,195.888 174.378,195.631 173.358 C 195.374 172.337,194.705 170.596,194.144 169.489 C 193.019 167.269,192.721 167.367,191.983 170.200 C 191.754 171.080,191.403 172.160,191.202 172.600 C 191.002 173.040,190.657 174.030,190.435 174.800 C 189.480 178.124,188.289 180.995,187.669 181.466 C 186.236 182.555,183.200 181.534,183.200 179.963 C 183.200 179.553,182.502 177.098,181.649 174.509 C 176.401 158.572,176.499 159.507,180.092 159.682 L 182.515 159.800 183.081 161.600 M252.506 160.700 C 253.295 161.305,254.122 162.187,254.344 162.661 C 254.801 163.637,255.065 180.448,254.633 181.146 C 254.126 181.967,252.190 181.652,251.275 180.600 C 250.284 179.461,249.137 179.311,248.381 180.223 C 245.858 183.262,239.162 182.244,237.593 178.583 C 235.310 173.257,238.249 169.917,246.000 169.030 L 249.800 168.595 249.921 166.943 C 250.139 163.954,244.877 162.432,240.380 164.183 C 239.162 164.657,238.269 161.859,239.327 160.884 C 241.242 159.119,250.280 158.993,252.506 160.700 M163.800 163.764 C 162.484 164.348,161.041 166.676,161.266 167.854 C 161.588 169.536,170.000 169.073,170.000 167.373 C 170.000 164.216,166.877 162.399,163.800 163.764 M167.859 164.706 C 168.315 164.998,168.534 165.965,168.446 167.300 C 168.354 168.692,162.798 168.298,162.806 166.900 C 162.813 165.635,163.148 165.016,164.000 164.692 C 164.880 164.357,167.328 164.366,167.859 164.706 M245.369 171.873 C 243.815 172.180,242.064 174.156,242.292 175.345 C 243.094 179.544,250.000 178.072,250.000 173.701 C 250.000 171.903,248.404 171.273,245.369 171.873 M248.530 173.221 C 249.256 174.257,248.610 175.917,247.355 176.241 C 243.661 177.195,242.119 174.755,245.479 173.273 C 247.861 172.223,247.831 172.223,248.530 173.221 M115.478 212.325 C 114.701 212.417,114.227 212.786,113.933 213.529 C 113.700 214.118,113.281 215.050,113.000 215.600 C 112.720 216.150,112.357 217.406,112.195 218.391 C 112.032 219.376,111.674 220.546,111.398 220.991 C 111.123 221.436,110.785 222.430,110.647 223.200 C 110.510 223.970,110.140 225.140,109.825 225.800 C 109.510 226.460,109.091 227.810,108.894 228.800 L 108.535 230.600 108.241 229.000 C 108.079 228.120,107.700 226.770,107.399 226.000 C 107.097 225.230,106.732 223.702,106.587 222.605 C 106.441 221.508,106.094 220.158,105.816 219.605 C 105.537 219.052,105.184 217.610,105.030 216.400 C 104.557 212.658,104.167 212.349,100.081 212.485 L 96.600 212.600 96.480 213.835 C 96.413 214.514,96.653 215.864,97.011 216.835 C 97.370 217.806,97.833 219.500,98.041 220.600 C 98.248 221.700,98.663 223.050,98.964 223.600 C 99.264 224.150,99.643 225.586,99.805 226.790 C 99.967 227.995,100.326 229.345,100.602 229.790 C 100.878 230.236,101.207 231.418,101.333 232.418 C 101.459 233.418,101.840 234.768,102.179 235.418 C 102.518 236.068,102.796 237.056,102.798 237.614 C 102.799 238.171,103.160 239.652,103.600 240.904 C 104.040 242.156,104.400 243.427,104.400 243.728 C 104.400 247.232,110.750 245.884,111.424 242.237 C 111.583 241.378,111.956 240.208,112.254 239.637 C 112.552 239.067,112.796 238.273,112.798 237.874 C 112.799 237.475,113.145 236.305,113.567 235.274 C 113.989 234.243,114.445 232.860,114.581 232.200 C 114.716 231.540,115.082 230.460,115.393 229.800 C 115.704 229.140,116.087 228.060,116.244 227.400 C 116.519 226.244,116.540 226.268,116.823 228.039 C 116.984 229.050,117.405 230.436,117.758 231.119 C 118.111 231.802,118.400 232.777,118.400 233.286 C 118.400 233.795,118.760 234.884,119.200 235.704 C 119.640 236.525,120.000 237.576,120.000 238.038 C 120.000 238.501,120.259 239.446,120.577 240.140 C 120.894 240.833,121.350 242.162,121.590 243.093 C 122.674 247.293,127.933 246.394,128.577 241.898 C 128.727 240.852,129.107 239.502,129.422 238.898 C 129.737 238.294,130.000 237.260,130.006 236.600 C 130.013 235.940,130.374 234.615,130.809 233.656 C 131.244 232.697,131.604 231.437,131.609 230.856 C 131.614 230.275,131.974 229.015,132.409 228.056 C 132.844 227.097,133.200 225.799,133.200 225.171 C 133.200 224.543,133.560 223.116,134.000 222.000 C 134.440 220.884,134.800 219.477,134.800 218.874 C 134.800 218.271,135.043 217.423,135.340 216.989 C 137.501 213.833,136.651 212.400,132.619 212.400 L 129.291 212.400 128.691 213.700 C 128.360 214.415,127.969 216.080,127.822 217.400 C 127.674 218.720,127.314 220.340,127.022 221.000 C 126.729 221.660,126.361 223.280,126.204 224.600 C 125.775 228.196,124.028 230.949,123.982 228.100 C 123.973 227.495,123.692 226.280,123.358 225.400 C 123.024 224.520,122.512 222.839,122.220 221.664 C 121.928 220.489,121.488 219.328,121.244 219.084 C 121.000 218.840,120.800 218.074,120.800 217.383 C 120.800 214.106,118.545 211.962,115.478 212.325 M138.431 213.168 C 136.784 214.853,136.810 216.265,138.519 217.922 C 142.165 221.455,148.406 217.060,145.259 213.174 C 143.948 211.555,140.012 211.551,138.431 213.168 M151.757 212.343 C 149.994 212.676,150.000 212.623,150.000 227.463 C 150.000 242.672,149.969 242.421,152.099 244.533 C 153.477 245.900,158.984 246.366,160.682 245.260 C 162.682 243.956,161.668 238.579,159.474 238.862 C 157.604 239.104,157.600 239.076,157.600 226.053 C 157.600 211.634,157.445 211.269,151.757 212.343 M178.151 212.343 C 176.630 212.633,176.400 213.208,176.394 216.749 C 176.387 220.459,175.995 221.755,175.137 220.897 C 172.899 218.659,165.536 222.447,163.417 226.927 C 162.176 229.551,161.887 237.968,162.987 239.424 C 163.310 239.851,163.580 240.489,163.587 240.842 C 163.603 241.642,165.228 243.420,167.143 244.732 C 169.212 246.149,174.136 246.241,175.954 244.897 C 177.454 243.788,178.459 243.760,179.400 244.800 C 180.241 245.730,182.287 245.863,183.385 245.060 C 184.192 244.470,184.386 215.468,183.597 213.392 C 183.250 212.480,180.359 211.923,178.151 212.343 M197.286 212.338 C 196.565 212.796,195.364 215.137,195.001 216.794 C 194.833 217.561,194.466 218.551,194.187 218.994 C 193.907 219.437,193.548 220.430,193.388 221.200 C 193.228 221.970,192.851 222.955,192.549 223.389 C 192.247 223.823,191.994 224.543,191.986 224.989 C 191.979 225.435,191.625 226.520,191.200 227.400 C 190.775 228.280,190.421 229.316,190.414 229.701 C 190.406 230.087,190.040 231.075,189.600 231.896 C 189.160 232.716,188.794 233.661,188.786 233.994 C 188.779 234.327,188.425 235.320,188.000 236.200 C 187.575 237.080,187.221 238.122,187.214 238.516 C 187.206 238.910,186.840 239.938,186.400 240.800 C 184.688 244.155,185.473 245.600,189.009 245.600 L 191.590 245.600 192.658 243.908 C 193.246 242.977,193.887 241.499,194.084 240.624 C 194.649 238.111,194.865 237.999,199.149 238.006 C 203.496 238.013,203.836 238.134,204.191 239.804 C 204.632 241.869,206.549 245.212,207.421 245.436 C 209.098 245.867,212.502 245.425,212.945 244.718 C 213.414 243.971,212.713 239.646,212.055 239.227 C 211.859 239.102,211.572 238.245,211.418 237.323 C 211.264 236.401,210.890 235.441,210.588 235.190 C 210.286 234.940,209.921 233.945,209.776 232.980 C 209.631 232.015,209.263 231.018,208.957 230.764 C 208.650 230.510,208.400 229.822,208.400 229.236 C 208.400 228.649,208.050 227.484,207.623 226.646 C 207.196 225.808,206.725 224.554,206.577 223.861 C 206.429 223.167,206.064 222.150,205.765 221.600 C 205.467 221.050,205.033 219.843,204.801 218.917 C 204.568 217.991,204.203 217.126,203.989 216.993 C 203.775 216.861,203.600 216.210,203.600 215.546 C 203.600 212.990,199.523 210.919,197.286 212.338 M257.095 212.277 C 256.707 212.378,256.122 212.978,255.795 213.611 C 253.596 217.862,259.446 221.455,262.778 217.900 C 265.875 214.595,262.190 210.948,257.095 212.277 M119.069 215.530 C 119.531 216.779,120.307 219.150,120.791 220.800 C 121.276 222.450,122.012 224.790,122.426 226.000 C 122.841 227.210,123.383 229.415,123.631 230.900 C 123.879 232.385,124.216 233.600,124.379 233.600 C 125.325 233.600,126.054 231.778,126.618 228.009 C 126.957 225.739,127.385 223.594,127.567 223.241 C 127.750 222.889,128.101 221.421,128.348 219.980 C 129.342 214.165,129.815 213.206,131.715 213.153 C 133.593 213.100,134.511 213.189,134.781 213.452 C 135.072 213.736,133.507 220.244,131.235 228.200 C 130.795 229.740,130.223 231.810,129.964 232.800 C 129.704 233.790,129.164 235.770,128.764 237.200 C 128.363 238.630,127.925 240.430,127.789 241.200 C 126.991 245.726,122.997 245.673,122.021 241.123 C 121.777 239.985,121.426 238.862,121.241 238.627 C 121.056 238.392,120.779 237.507,120.626 236.660 C 120.474 235.813,120.104 234.553,119.804 233.860 C 119.019 232.045,118.051 228.984,117.337 226.061 C 116.639 223.205,116.249 223.241,115.413 226.241 C 114.807 228.419,114.269 230.027,113.152 233.008 C 112.739 234.112,112.399 235.372,112.398 235.808 C 112.396 236.243,112.115 237.136,111.774 237.792 C 111.432 238.447,110.974 239.797,110.756 240.792 C 109.723 245.503,105.739 246.048,104.843 241.600 C 104.488 239.837,103.843 237.443,101.774 230.200 C 101.208 228.220,100.515 225.501,100.232 224.158 C 99.950 222.815,99.582 221.495,99.415 221.224 C 99.102 220.718,98.124 216.809,97.733 214.500 L 97.512 213.200 100.166 213.200 C 103.495 213.200,102.973 212.178,105.782 224.200 C 106.418 226.921,107.074 229.357,108.034 232.560 C 108.594 234.429,108.892 234.031,109.562 230.511 C 109.823 229.142,110.297 227.522,110.615 226.911 C 110.934 226.300,111.196 225.543,111.198 225.228 C 111.200 224.686,111.689 223.077,113.818 216.600 C 115.303 212.083,117.616 211.612,119.069 215.530 M144.274 213.670 C 147.163 216.383,142.692 219.940,139.631 217.364 C 138.220 216.178,138.126 215.587,139.086 213.962 C 139.983 212.443,142.800 212.284,144.274 213.670 M156.000 213.488 C 156.110 213.586,156.253 219.272,156.317 226.125 C 156.447 240.037,156.481 240.199,159.349 240.478 C 161.030 240.642,161.423 243.118,159.933 244.162 C 157.715 245.715,152.313 244.561,151.689 242.400 C 151.106 240.381,151.346 213.604,151.951 213.230 C 152.472 212.909,155.570 213.106,156.000 213.488 M182.482 213.552 C 182.848 213.879,182.950 242.779,182.589 243.700 C 182.196 244.703,180.913 244.563,179.835 243.400 C 178.639 242.109,178.025 242.140,175.862 243.600 C 169.913 247.615,163.214 242.473,163.203 233.882 C 163.193 225.988,166.583 222.006,173.326 221.994 C 177.770 221.986,177.789 221.968,177.853 217.612 C 177.917 213.290,178.204 212.802,180.516 213.091 C 181.442 213.206,182.327 213.414,182.482 213.552 M201.808 214.016 C 202.154 214.685,202.979 216.890,203.641 218.916 C 204.303 220.942,205.084 223.050,205.376 223.600 C 205.669 224.150,206.039 225.230,206.200 226.000 C 206.361 226.770,206.638 227.583,206.817 227.806 C 206.995 228.029,207.702 229.919,208.388 232.006 C 209.074 234.093,209.897 236.367,210.217 237.060 C 210.538 237.754,210.800 238.529,210.800 238.782 C 210.800 239.036,211.173 240.062,211.628 241.061 C 212.799 243.633,212.529 244.000,209.463 244.000 L 206.901 244.000 205.751 240.964 C 204.398 237.394,204.082 237.200,199.624 237.200 C 194.341 237.200,194.299 237.222,192.925 240.738 L 191.728 243.800 189.406 243.922 C 186.707 244.063,186.101 243.689,186.852 242.343 C 187.141 241.824,187.590 240.680,187.850 239.800 C 188.423 237.860,189.485 234.891,189.997 233.800 C 190.485 232.757,191.951 228.534,192.356 227.000 C 192.530 226.340,192.972 225.224,193.337 224.520 C 193.701 223.816,194.000 223.033,194.000 222.780 C 194.000 222.528,194.261 221.754,194.579 221.060 C 194.898 220.367,195.515 218.720,195.950 217.400 C 197.538 212.590,197.381 212.800,199.380 212.800 C 200.980 212.800,201.249 212.935,201.808 214.016 M261.440 213.106 C 263.108 214.220,262.957 216.892,261.173 217.814 C 258.004 219.453,254.774 216.026,257.200 213.600 C 258.008 212.792,260.529 212.498,261.440 213.106 M316.709 215.824 C 316.586 215.947,315.611 216.360,314.543 216.741 C 312.625 217.425,312.597 217.458,312.400 219.417 C 312.224 221.163,312.080 221.417,311.200 221.538 C 308.430 221.922,308.274 227.200,311.033 227.200 C 312.251 227.200,312.388 228.014,312.395 235.251 C 312.399 240.315,312.514 241.597,313.000 242.000 C 313.330 242.274,313.600 242.725,313.600 243.002 C 313.600 245.453,321.706 246.888,324.331 244.901 C 326.659 243.138,325.472 238.661,322.729 238.859 C 320.217 239.041,319.823 238.315,319.666 233.221 C 319.511 228.226,319.891 227.421,322.423 227.373 C 324.975 227.325,325.200 227.084,325.200 224.403 C 325.200 221.674,324.647 221.170,321.770 221.278 C 320.021 221.344,319.614 220.799,319.606 218.380 C 319.598 216.100,317.917 214.616,316.709 215.824 M318.586 217.700 C 318.696 218.195,318.835 219.320,318.893 220.200 L 319.000 221.800 321.200 222.004 C 324.044 222.268,324.400 222.533,324.400 224.381 C 324.400 226.084,323.984 226.400,321.741 226.400 C 318.877 226.400,318.800 226.568,318.800 232.833 C 318.800 239.430,319.289 240.400,322.616 240.400 C 324.413 240.400,324.800 240.795,324.800 242.627 C 324.800 244.700,318.660 245.634,315.867 243.987 C 314.009 242.891,313.600 241.086,313.600 233.997 C 313.600 227.829,313.424 227.155,311.615 226.406 C 309.660 225.597,309.827 223.076,311.900 222.100 C 313.206 221.486,313.429 221.175,313.626 219.705 C 313.894 217.698,313.976 217.598,315.680 217.195 C 317.906 216.667,318.373 216.748,318.586 217.700 M224.505 221.156 C 223.573 221.526,222.592 222.048,222.325 222.315 C 221.652 222.988,221.328 222.928,220.354 221.954 C 219.682 221.282,219.182 221.151,217.938 221.318 C 215.054 221.704,215.200 220.836,215.200 237.560 C 215.200 255.181,215.033 254.400,218.794 254.400 C 222.135 254.400,222.400 254.028,222.400 249.326 L 222.400 245.509 224.162 245.773 C 226.391 246.108,229.885 245.658,230.598 244.945 C 230.898 244.645,231.344 244.400,231.591 244.400 C 232.171 244.400,233.826 242.624,235.131 240.600 C 236.931 237.808,237.379 231.789,236.202 226.200 C 235.377 222.283,228.805 219.448,224.505 221.156 M273.809 221.180 C 271.874 221.840,268.400 224.742,268.400 225.696 C 268.400 225.939,268.085 226.485,267.700 226.910 C 265.526 229.312,266.841 240.034,269.656 242.859 C 272.646 245.860,280.227 247.150,282.537 245.051 C 282.810 244.803,283.386 244.397,283.817 244.148 C 286.144 242.807,284.335 238.589,281.519 238.791 C 276.861 239.125,276.029 238.864,274.899 236.714 C 273.297 233.668,273.964 229.537,276.351 227.720 C 277.130 227.127,281.050 227.034,281.400 227.600 C 282.310 229.073,285.068 225.332,284.610 223.247 C 284.077 220.817,278.178 219.688,273.809 221.180 M293.800 221.224 C 291.171 222.044,288.975 223.857,287.932 226.067 C 286.010 230.141,285.524 233.963,286.600 236.538 C 286.930 237.328,287.200 238.393,287.200 238.906 C 287.200 239.418,287.515 240.252,287.900 240.759 C 289.090 242.326,290.756 244.000,291.125 244.000 C 291.319 244.000,291.866 244.337,292.341 244.749 C 293.944 246.139,301.263 246.280,302.597 244.945 C 302.897 244.645,303.309 244.400,303.512 244.400 C 303.999 244.400,305.960 242.470,307.143 240.827 C 308.659 238.719,309.116 232.665,308.147 227.515 C 307.245 222.718,299.665 219.394,293.800 221.224 M248.516 221.330 C 247.809 221.589,246.978 222.147,246.668 222.572 C 246.116 223.330,246.097 223.328,245.652 222.496 C 245.012 221.302,241.977 220.861,240.599 221.764 L 239.600 222.418 239.600 232.836 C 239.600 245.424,239.646 245.582,243.318 245.594 C 246.951 245.605,247.200 245.003,247.200 236.208 L 247.200 228.780 248.226 228.390 C 248.790 228.176,250.044 228.000,251.012 228.000 C 253.096 228.000,253.461 227.521,253.840 224.299 C 254.216 221.099,252.209 219.980,248.516 221.330 M139.100 221.606 C 138.002 222.286,138.031 243.942,139.131 244.938 C 140.222 245.924,143.762 245.838,144.800 244.800 C 145.741 243.859,146.075 222.341,145.158 221.774 C 144.366 221.284,139.822 221.158,139.100 221.606 M257.200 221.558 L 256.200 221.836 256.090 233.018 C 255.962 245.981,255.849 245.600,259.795 245.600 C 263.058 245.600,262.981 245.873,263.124 233.706 C 263.279 220.572,262.977 219.952,257.200 221.558 M198.984 222.026 C 198.835 222.267,198.477 223.395,198.189 224.532 C 197.902 225.670,197.405 227.320,197.087 228.200 C 195.510 232.557,195.889 233.198,199.931 233.003 C 203.218 232.845,203.367 231.867,200.977 226.140 C 200.688 225.447,200.329 224.230,200.180 223.436 C 199.888 221.878,199.418 221.324,198.984 222.026 M229.648 221.973 C 234.009 222.687,235.779 225.633,235.791 232.200 C 235.808 240.829,232.310 245.034,225.357 244.744 C 221.678 244.590,221.657 244.614,221.516 249.204 L 221.400 253.000 219.164 253.118 C 217.580 253.202,216.787 253.066,216.445 252.654 C 215.947 252.054,215.931 223.134,216.429 222.637 C 217.271 221.797,219.175 221.966,220.037 222.957 C 221.141 224.226,221.573 224.251,223.000 223.128 C 223.610 222.649,224.759 222.129,225.554 221.974 C 226.349 221.819,227.090 221.672,227.200 221.648 C 227.310 221.624,228.411 221.770,229.648 221.973 M282.456 222.242 C 283.320 222.484,283.589 224.036,283.011 225.449 C 282.552 226.573,282.534 226.578,279.326 226.457 C 276.127 226.336,276.092 226.345,274.861 227.662 C 272.836 229.829,272.545 235.533,274.344 237.820 C 276.049 239.987,280.173 241.338,281.000 240.000 C 281.786 238.728,284.000 240.745,284.000 242.734 C 284.000 244.509,275.820 245.413,272.829 243.968 C 266.134 240.734,265.766 228.205,272.209 222.852 C 273.451 221.821,279.643 221.452,282.456 222.242 M302.200 222.415 C 308.349 224.780,309.924 237.449,304.671 242.292 C 302.468 244.323,295.086 245.834,294.219 244.431 C 294.094 244.228,293.480 243.949,292.856 243.812 C 286.614 242.441,285.390 228.419,291.104 223.737 C 293.496 221.776,298.873 221.135,302.200 222.415 M143.715 222.500 C 144.303 222.940,144.396 224.210,144.492 233.086 C 144.615 244.568,144.734 244.181,141.176 243.927 L 139.400 243.800 139.293 233.228 C 139.210 225.036,139.301 222.583,139.693 222.334 C 140.474 221.838,142.969 221.941,143.715 222.500 M244.733 222.798 C 245.234 224.302,246.063 224.427,247.451 223.209 C 248.846 221.984,252.405 221.437,252.974 222.359 C 253.872 223.811,252.666 226.400,251.093 226.400 C 246.833 226.400,246.000 228.065,246.000 236.577 C 246.000 244.040,245.968 244.117,242.931 243.923 L 241.000 243.800 240.893 233.228 C 240.811 225.045,240.901 222.578,241.293 222.313 C 241.938 221.878,244.549 222.246,244.733 222.798 M261.731 222.500 C 262.350 222.953,262.404 223.977,262.307 233.400 L 262.200 243.800 260.432 243.926 C 259.460 243.996,258.245 243.947,257.732 243.819 L 256.800 243.585 256.800 233.179 L 256.800 222.774 257.700 222.412 C 259.015 221.884,260.946 221.926,261.731 222.500 M200.736 228.681 C 201.853 230.768,201.367 232.000,199.427 232.000 C 197.187 232.000,196.798 231.132,197.948 228.699 C 198.389 227.764,198.880 226.280,199.038 225.400 L 199.327 223.800 199.800 225.808 C 200.060 226.912,200.482 228.205,200.736 228.681 M172.157 226.433 C 167.773 227.704,167.370 238.013,171.619 240.210 C 175.318 242.122,178.113 238.572,177.969 232.145 C 177.847 226.684,176.353 225.216,172.157 226.433 M224.155 226.372 C 222.010 227.290,221.600 228.523,221.600 234.060 L 221.600 239.212 222.900 240.025 C 227.548 242.932,231.951 236.365,230.048 229.364 C 229.322 226.691,226.617 225.317,224.155 226.372 M295.639 226.484 C 291.618 228.641,291.457 236.842,295.380 239.685 C 299.839 242.917,303.774 237.011,301.961 229.810 C 301.201 226.792,298.103 225.162,295.639 226.484 M228.476 228.166 C 229.641 229.559,229.511 236.771,228.300 237.901 C 227.159 238.966,225.580 239.360,223.797 239.026 L 222.400 238.764 222.400 234.000 C 222.400 227.479,225.451 224.549,228.476 228.166 M300.259 228.361 C 301.730 230.030,301.653 236.638,300.145 238.145 C 297.074 241.217,294.246 239.065,294.066 233.518 C 293.868 227.380,297.055 224.726,300.259 228.361 M176.320 231.800 C 176.513 238.872,175.934 239.864,172.105 239.023 C 167.489 238.009,169.433 227.004,174.178 227.282 L 176.200 227.400 176.320 231.800 M164.608 274.669 C 161.876 274.919,162.013 274.051,162.006 291.126 C 161.999 308.890,161.821 308.000,165.386 308.000 C 169.066 308.000,169.200 307.790,169.200 302.022 L 169.200 297.300 172.500 297.122 C 174.315 297.025,176.160 296.743,176.600 296.496 C 177.040 296.250,177.850 295.955,178.400 295.841 C 179.403 295.633,183.200 292.482,183.200 291.858 C 183.200 291.676,183.560 291.069,184.000 290.509 C 184.682 289.643,184.800 288.886,184.800 285.400 C 184.800 281.914,184.682 281.157,184.000 280.291 C 183.560 279.731,183.200 279.143,183.200 278.984 C 183.200 278.536,180.398 276.000,179.903 276.000 C 179.661 276.000,179.160 275.726,178.790 275.391 C 178.081 274.749,168.856 274.280,164.608 274.669 M178.400 276.498 C 182.498 278.463,184.000 280.847,184.000 285.389 C 184.000 288.510,181.712 293.600,180.309 293.600 C 180.121 293.600,179.480 293.950,178.884 294.377 C 177.683 295.238,174.066 296.000,171.176 296.000 C 168.625 296.000,168.445 296.353,168.314 301.610 L 168.200 306.171 166.928 306.536 C 166.229 306.736,165.014 306.779,164.228 306.632 L 162.800 306.364 162.806 291.482 C 162.809 283.297,162.945 276.391,163.107 276.136 C 163.987 274.753,175.320 275.021,178.400 276.498 M169.600 280.095 C 168.421 280.717,167.825 289.426,168.875 290.691 C 170.168 292.249,175.441 290.927,177.285 288.582 C 180.579 284.395,174.395 277.565,169.600 280.095 M174.471 281.613 C 179.330 282.963,177.145 290.087,171.848 290.164 L 169.400 290.200 169.285 286.228 C 169.128 280.829,169.727 280.295,174.471 281.613 M210.318 283.533 C 204.712 285.172,202.661 288.450,202.642 295.800 C 202.626 302.097,203.583 304.292,207.614 307.200 C 211.227 309.806,222.368 307.865,222.394 304.625 C 222.415 301.941,219.818 300.597,216.938 301.800 C 213.756 303.130,209.402 301.217,209.883 298.700 C 210.052 297.815,210.154 297.800,215.986 297.800 C 223.460 297.800,223.600 297.716,223.600 293.264 C 223.600 285.757,217.641 281.391,210.318 283.533 M230.789 283.551 C 228.266 284.358,226.473 285.934,226.131 287.644 C 226.002 288.289,225.740 288.914,225.548 289.032 C 225.067 289.329,225.109 291.896,225.600 292.200 C 225.820 292.336,226.000 292.790,226.000 293.210 C 226.000 294.873,230.925 298.800,233.011 298.800 C 233.310 298.800,234.060 299.251,234.678 299.801 L 235.800 300.802 234.856 301.601 C 233.737 302.547,233.133 302.580,231.000 301.812 C 227.530 300.561,224.670 302.373,225.266 305.444 C 226.066 309.564,238.106 309.258,241.609 305.029 C 243.634 302.584,242.537 294.800,240.168 294.800 C 239.902 294.800,239.582 294.530,239.455 294.200 C 239.329 293.870,238.992 293.600,238.707 293.600 C 238.421 293.600,237.561 293.268,236.794 292.861 C 236.027 292.455,234.905 292.002,234.300 291.854 C 233.041 291.546,232.729 289.866,233.851 289.436 C 234.595 289.150,238.297 289.552,239.206 290.017 C 239.968 290.407,240.789 289.777,241.738 288.073 C 242.686 286.370,242.071 284.508,240.449 284.173 C 239.872 284.053,238.398 283.696,237.174 283.378 C 234.372 282.651,233.530 282.673,230.789 283.551 M249.534 283.724 C 243.458 286.073,243.047 295.574,248.940 297.444 C 249.392 297.588,250.009 297.952,250.310 298.253 C 250.611 298.554,251.294 298.800,251.829 298.800 C 252.983 298.800,254.501 300.187,254.325 301.082 C 254.084 302.305,252.969 302.614,250.917 302.024 C 245.840 300.566,244.355 301.491,244.758 305.860 C 244.902 307.430,250.916 308.777,255.325 308.227 C 257.830 307.914,261.600 304.933,261.600 303.265 C 261.600 302.810,261.796 302.007,262.037 301.480 C 262.862 299.668,259.672 293.600,257.894 293.600 C 257.705 293.600,256.617 293.173,255.475 292.651 C 254.334 292.129,253.085 291.594,252.700 291.463 C 251.648 291.105,251.826 289.730,252.961 289.446 C 254.114 289.156,257.617 289.567,258.255 290.067 C 259.760 291.245,262.022 286.716,260.851 284.869 C 259.838 283.271,252.600 282.538,249.534 283.724 M196.494 283.799 C 195.775 284.111,195.082 284.643,194.952 284.981 C 194.748 285.512,194.565 285.487,193.596 284.797 C 191.995 283.657,188.208 283.664,187.595 284.808 C 187.307 285.347,187.202 289.167,187.281 296.241 C 187.419 308.607,187.248 308.118,191.389 307.917 C 194.716 307.754,194.829 307.466,194.754 299.366 C 194.680 291.316,195.205 290.205,199.000 290.384 C 201.005 290.478,201.718 289.623,201.916 286.888 C 202.158 283.541,199.963 282.291,196.494 283.799 M200.375 284.787 C 202.253 285.792,200.439 289.171,198.000 289.210 C 197.047 289.225,196.153 289.614,195.200 290.428 L 193.800 291.623 193.600 298.900 L 193.400 306.176 191.665 306.519 C 188.435 307.156,188.400 307.041,188.400 295.771 C 188.400 290.433,188.509 285.781,188.643 285.433 C 189.019 284.452,191.853 284.578,192.400 285.600 C 192.930 286.591,195.107 286.709,195.468 285.767 C 195.925 284.576,198.879 283.986,200.375 284.787 M219.264 285.720 C 221.755 287.626,223.189 292.768,222.048 295.700 L 221.620 296.800 215.690 296.800 C 209.391 296.800,208.800 296.963,208.800 298.706 C 208.800 302.419,214.686 304.731,218.461 302.500 C 219.797 301.711,221.172 302.795,221.191 304.651 C 221.216 307.049,212.831 308.252,208.799 306.430 C 202.177 303.438,201.191 289.016,207.400 285.959 C 207.840 285.743,208.650 285.297,209.200 284.970 C 211.051 283.866,217.466 284.345,219.264 285.720 M240.140 285.150 C 242.300 286.943,240.512 289.252,237.457 288.615 C 231.779 287.433,229.598 290.550,234.411 292.968 C 235.541 293.536,236.685 294.000,236.954 294.000 C 240.806 294.000,243.289 301.038,240.656 304.491 C 238.182 307.735,227.691 308.387,226.533 305.370 C 225.734 303.287,227.698 301.513,229.600 302.600 C 231.438 303.651,235.531 303.388,236.080 302.184 C 236.611 301.019,236.159 299.268,235.200 298.773 C 232.941 297.608,231.104 296.798,230.688 296.783 C 229.620 296.747,227.124 294.035,226.769 292.526 C 226.022 289.351,227.522 285.706,230.000 284.672 C 231.172 284.182,239.444 284.573,240.140 285.150 M257.728 284.661 C 259.983 285.034,260.759 286.372,259.635 287.950 L 258.797 289.128 256.383 288.565 C 249.598 286.982,249.274 291.967,256.032 293.970 C 261.994 295.737,262.701 303.916,257.115 306.512 C 254.171 307.880,246.821 307.253,245.765 305.543 C 244.654 303.746,246.867 301.428,248.606 302.567 C 251.685 304.584,257.185 302.348,255.323 299.836 C 254.731 299.038,250.647 296.800,249.781 296.800 C 248.090 296.800,245.600 292.980,245.600 290.387 C 245.600 285.533,250.113 283.403,257.728 284.661 M212.200 288.484 C 209.696 289.361,208.032 292.429,209.478 293.500 C 210.367 294.159,216.465 294.175,217.120 293.520 C 218.672 291.968,215.593 287.310,213.492 288.032 C 213.441 288.049,212.860 288.252,212.200 288.484 M216.093 290.284 C 216.538 290.687,216.790 291.369,216.719 291.979 C 216.542 293.501,209.991 293.830,210.013 292.316 C 210.052 289.654,213.955 288.349,216.093 290.284 " stroke="none" fill="#989898" fill-rule="evenodd"></path></g></svg>